<?xml version="1.0" encoding="UTF-8"?>
<svg id="Logos" xmlns="http://www.w3.org/2000/svg" viewBox="0 0 250 250">
  <defs>
    <style>
      .cls-1 {
        fill: #0f7ee9;
      }

      .cls-2 {
        fill: #f9be36;
      }
    </style>
  </defs>
  <g id="Aparecida">
    <g>
      <path class="cls-2" d="M213.55,103.9c0,48.79-39.56,88.35-88.35,88.35s-88.35-39.56-88.35-88.35S76.41,15.55,125.2,15.55s88.35,39.56,88.35,88.35ZM123.83,26c-5.59.45-10.55,3.6-13.63,8.18-15.9,35.76-33.18,70.98-48.79,106.86-.9,2.07-2.58,4.73-1.92,6.92.41,1.37,4.17,5.95,5.38,6.88,1.31,1.01,2.43,1.77,3.64.11l43.96-117.69c5.42-10.61,20.4-10.38,25.64.19l43.56,117c1.43,3.55,3.86.62,5.47-1.09,1.71-1.82,4.58-5.1,3.89-7.73l-50.57-111.08c-3.5-5.66-9.92-9.09-16.63-8.56ZM123.28,32.53c-3.65.5-7.23,3.58-8.59,6.95l-38.21,123.17c-.17,1.45.19,2.4,1.08,3.51,1.82,2.28,14.54,9.38,17.38,9.63.39.03.73.08,1.08-.14l.68-.69,22.1-133.01c1.8-6.55,11.08-6.55,12.92,0l22.15,133.22c.78.91,1.77.59,2.79.32,3.05-.81,12.19-5.63,14.75-7.6,1.47-1.13,2.94-2.64,2.57-4.65l-38.16-123.5c-2.14-5.2-6.9-7.98-12.54-7.22ZM143.15,179.03c.24-.24.78-1.14.85-1.46l-14.95-134.31c-.79-3.95-6.04-4.39-7.48-.71l-15.11,134.22c.09,1.04,1.08,2.18,1.91,2.74,4.28,2.9,20.6,2.59,26.01,2.06,2.36-.23,7.06-.85,8.77-2.54Z"/>
      <path class="cls-2" d="M177.13,234.64c-.31-.29-.51-.94-.72-1.33.18-7.29-.87-15.8-.19-23,.14-1.47,1.04-3.13,2.62-3.38,2.43-.39,9.97-.18,12.33.45,7.97,2.13,10.46,10.39,8.93,17.8s-7.42,10.02-14.45,10.36c-1.81.09-7.26.24-8.51-.91ZM187.81,213.46c-1.42-.22-3.29.16-4.77,0v15.13c.61.63,2,.47,2.87.42,5.77-.32,7.44-4.38,6.95-9.7-.25-2.71-2.28-5.42-5.05-5.85Z"/>
      <path class="cls-2" d="M108.35,232.68c-.62,4.41-6.88,4.14-7.06-.3.52-6.96-.81-15.21,0-22.02.17-1.42.77-2.75,2.22-3.23s8.76-.35,10.57-.09c9.36,1.35,11.1,14.17,1.62,16.64,1.75,2.95,8.28,7.03,5.95,10.86-1.39,2.29-4.22,1.57-5.83-.08l-7.49-9.28c-.23,2.33.32,5.24,0,7.5ZM108.35,219.46h3.95c2.83,0,3.18-6,.27-6h-4.23v6Z"/>
      <path class="cls-2" d="M227.66,234.91c-.39.35-1.97.9-2.52.92-1.57.04-2.33-.95-3.07-2.11s-1.36-3.76-2.63-3.91c-3.73-.45-8.41.34-12.25.05-.63.22-1.71,4.76-3.51,5.48-1.01.41-2.55.35-3.46-.22-2.36-1.47-1.15-4.02-.33-6.03,2.71-6.69,6.74-13.21,9.53-19.91,1.89-3.13,6.04-3.58,8.19-.45,4.1,6,6.68,15.57,10.42,22.02.37,1.13.57,3.31-.37,4.15ZM217.39,223.55l-3.81-8.45-3.55,8.72,7.36-.27Z"/>
      <path class="cls-2" d="M27.57,234.63c-1.24,1.15-3.5,1.33-4.79.21s-.93-2.87-.51-4.28c2.06-6.85,7.72-14.69,10.35-21.55,3.19-4.09,6.65-2.81,8.91,1.35,2.92,5.37,6.6,13.24,8.88,18.92.76,1.9,1.98,4.57-.3,5.95-4.03,2.44-5.59-2.73-7.08-5.37-3.84.28-8.51-.5-12.25-.05-1.39.17-1.64,2.41-2.25,3.48-.19.33-.72,1.12-.97,1.35ZM40.47,223.55l-3.68-8.45-3.95,8.31c.25.39.53.38.93.42,2.22.24,4.48-.29,6.69-.29Z"/>
      <path class="cls-2" d="M84.29,206.71c4.29-.69,5.6,3.6,7.12,6.65,2.23,4.47,4.66,9.51,6.63,14.09.94,2.2,3.39,6.3.41,7.87-1.91,1.01-3.6.37-4.78-1.33-.66-.94-1.32-3.31-1.82-3.91-.25-.31-.47-.24-.8-.29-3.7-.46-8.42.33-12.23.07-1.95,2.3-2.07,6.47-6.26,5.61-3-.62-2.2-3.83-1.42-5.93,1.96-5.28,5.73-12.38,8.35-17.55,1.13-2.23,1.97-4.83,4.8-5.29ZM89,223.55l-3.68-8.45-3.95,8.72,7.63-.27Z"/>
      <path class="cls-2" d="M60.1,226.55v5.86c0,.35-.78,2.13-1.08,2.46-1.83,1.98-5.44.93-5.88-1.76.26-7.22-.76-15.4-.13-22.52.16-1.82.96-3.34,2.9-3.65,8.83-1.38,19.59.34,18.03,11.76-.6,4.38-4.67,7.84-9.06,7.84h-4.77ZM60.1,220.01h3.95c.83,0,1.97-1.06,2.19-1.9,1.23-4.72-2.48-5.09-6.14-4.91v6.81Z"/>
      <path class="cls-2" d="M152.99,206.17c3.4-.46,12.26.25,11.18,5.45-.88,4.26-5.41,1.4-7.97,1.28-11.2-.54-10.18,19.09,1.76,16.23,1.82-.43,5.24-2.23,6.33.48,2.1,5.22-6.11,7-9.74,6.74-18.19-1.29-17.28-28.06-1.57-30.18Z"/>
      <path class="cls-2" d="M130.43,213.46v4.36h6.13c.1,0,1.41.47,1.6.58,1.53.88,1.74,3.54.63,4.79-.37.42-2.27,1.17-2.78,1.17h-5.59v4.63h7.22c.25,0,1.51.69,1.79.94,1.61,1.47.97,4.67-1.31,5.26s-10.3.62-12.41,0c-1.64-.48-2.13-1.76-2.39-3.34.44-6.7-.58-14.11,0-20.73.2-2.3.94-3.93,3.42-4.22,2.27-.26,7.81-.25,10.09,0,2.56.27,4.2,1.87,3.15,4.52-.43,1.07-2.4,2.02-3.43,2.02h-6.13Z"/>
      <path class="cls-2" d="M172.6,207.28c1.21,1.33.79,3.88.9,5.5.34,4.93,1.02,16.14-.12,20.6-.97,3.8-6.24,2.99-6.67-.72.55-7.15-.81-15.6-.02-22.6.35-3.09,3.77-5.13,5.91-2.78Z"/>
      <path class="cls-1" d="M123.28,32.53c5.64-.77,10.4,2.02,12.54,7.22l38.16,123.5c.36,2.01-1.1,3.52-2.57,4.65-2.56,1.97-11.7,6.79-14.75,7.6-1.03.27-2.01.59-2.79-.32l-22.15-133.22c-1.84-6.55-11.13-6.55-12.92,0l-22.1,133.01-.68.69c-.35.22-.69.18-1.08.14-2.84-.25-15.56-7.35-17.38-9.63-.89-1.11-1.24-2.06-1.08-3.51l38.21-123.17c1.36-3.36,4.94-6.45,8.59-6.95Z"/>
      <path class="cls-1" d="M143.15,179.03c-1.71,1.7-6.41,2.31-8.77,2.54-5.41.53-21.73.84-26.01-2.06-.83-.56-1.82-1.7-1.91-2.74l15.11-134.22c1.44-3.68,6.69-3.25,7.48.71l14.95,134.31c-.07.32-.61,1.23-.85,1.46Z"/>
      <path class="cls-1" d="M123.83,26c6.71-.54,13.13,2.9,16.63,8.56l50.57,111.08c.68,2.63-2.18,5.9-3.89,7.73-1.6,1.71-4.03,4.64-5.47,1.09l-43.56-117c-5.24-10.57-20.22-10.8-25.64-.19l-43.96,117.69c-1.21,1.66-2.33.9-3.64-.11-1.21-.93-4.97-5.51-5.38-6.88-.66-2.19,1.02-4.85,1.92-6.92,15.61-35.88,32.89-71.1,48.79-106.86,3.08-4.58,8.04-7.73,13.63-8.18Z"/>
    </g>
  </g>
</svg>