<?xml version="1.0" encoding="UTF-8"?>
<svg id="Logos" xmlns="http://www.w3.org/2000/svg" viewBox="0 0 250 250">
  <defs>
    <style>
      .cls-1 {
        fill: #1f395d;
      }
    </style>
  </defs>
  <g id="Band">
    <g>
      <g id="OLHO">
        <g>
          <path class="cls-1" d="M127.72,140.66c12.32,0,23.91-4.8,32.62-13.51,8.71-8.71,13.51-20.3,13.51-32.62s-4.8-23.91-13.51-32.62c-8.71-8.71-20.29-13.51-32.62-13.51s-23.91,4.8-32.62,13.51c-8.71,8.71-13.51,20.3-13.51,32.62s4.8,23.91,13.51,32.62c8.71,8.71,20.3,13.51,32.62,13.51"/>
          <path class="cls-1" d="M58.75,132.64c19.97,13.97,43.02,21.13,68.52,21.27.25,0,.49,0,.72,0,24.8,0,47.62-7.17,67.8-21.31,17.9-12.54,28.68-27.27,32.48-33.02,2.47-3.84,2.45-6.25-.11-10.32-2.64-4.21-12.73-18.98-31.56-32.28-9.33-6.59-19.39-11.78-29.9-15.43-12.51-4.34-25.78-6.55-39.45-6.55h-.11c-24.94.02-47.79,7.18-67.91,21.28-16.88,11.83-27.51,25.63-32.34,32.81-2.66,3.96-2.65,7.45.05,11.33,8.89,12.82,19.6,23.65,31.82,32.21M80.84,60.57c12.61-11.94,29.04-18.51,46.25-18.51,25.05,0,41.52,12.88,49.11,20.56,9.83,9.95,15.62,21.88,15.5,31.92.19,9.66-5.94,22.29-15.63,32.17-12.83,13.09-30.11,20.3-48.67,20.3-17.43,0-34.03-6.72-46.72-18.92-10.52-10.11-17.32-23.28-17.32-33.56s6.7-23.75,17.48-33.96"/>
        </g>
      </g>
      <g>
        <path class="cls-1" d="M24.89,167.2h33.82c9.9,0,11.62,6.18,11.62,10.07s-2.12,7.15-5.04,8.24v.11c4.35.97,7.1,4.46,7.1,10.24,0,4.81-2.23,12.19-14.82,12.19H24.89v-40.86ZM38.51,182.93h13.56c2.92,0,4.18-1.6,4.18-3.49s-1.26-3.43-4.18-3.43h-13.56v6.92ZM53.16,199.24c2.92,0,4.81-1.55,4.81-4.23s-1.89-4.06-4.81-4.06h-14.65v8.3h14.65Z"/>
        <path class="cls-1" d="M90.62,167.2h16.65l17.57,40.86h-14.59l-2.46-6.64h-17.85l-2.46,6.64h-14.59l17.74-40.86ZM98.92,177.5h-.11l-5.67,15.45h11.45l-5.67-15.45Z"/>
        <path class="cls-1" d="M128.54,167.2h15.68l18.94,25.58h.11v-25.58h13.16v40.86h-15.05l-19.57-25.81h-.11v25.81h-13.16v-40.86Z"/>
        <path class="cls-1" d="M181.13,167.2h29.53c12.76,0,19.46,6.7,19.46,20.43,0,16.02-9.5,20.43-21.23,20.43h-27.75v-40.86ZM194.75,198.9h11.39c7.78,0,9.9-5.67,9.9-11.33,0-7.61-3.66-11.22-10.99-11.22h-10.3v22.55Z"/>
      </g>
    </g>
  </g>
</svg>