<?xml version="1.0" encoding="UTF-8"?>
<svg id="Logos" xmlns="http://www.w3.org/2000/svg" viewBox="0 0 250 250">
  <defs>
    <style>
      .cls-1 {
        fill: #0682bf;
      }
    </style>
  </defs>
  <g id="Canção_Nova" data-name="Canção Nova">
    <g id="Canção_Nova-2" data-name="Canção Nova">
      <g>
        <path class="cls-1" d="M199.09,57.75c1.34.15,3.96.91,5.19,1.52.91.45,2.64,2.09,3.11,2.23.64.19,1.66-.24,2.62-.08,2.3.39,3.98,2.57,4.39,4.76.11.56-.12,1.28.13,1.79.35.71,2.26,1.4,2.73,3.23,1.06,4.08-1.28,6.03-4.45,7.84.68,4.86-1.41,9.67-5.48,12.39-28.94,19.04-57.23,39.14-86.47,57.67-10.75,4.33-22.6-.77-27.08-11.32-2.17-5.12-3.69-13.89-7.24-17.88-3.63-4.08-10.19-5.22-15.09-2.95-1.66.77-4.89,4.23-6.29,1.54-.68-1.31.91-4.5,1.19-6.21.37-2.31.12-4.29.28-6.53.98-14.37,16.67-22.41,28.81-14.33,4.74,3.16,9.08,7.79,13.67,11.23,10.26,7.69,22.2,2.15,26.09-9.24.71-2.09.61-4.42,2.82-5.69l63.46-23.84.91-.59c-1.23-.84-2.79-1.11-4.26-1.06l-58.57,17.02c-4.74.51-5.09-3.63-7.13-6.71-7.84-11.84-24.19-13.45-34.93-4.47-3.32,2.78-8.4,9.17-12.38,10.18-4.61,1.18-12.77-2.72-17.67-3.76-20.01-4.25-36.94,14.95-29.78,34.24,1.56,4.19,3.5,5.81,5.97,9.15,1.58,2.15-.44,4.51-2.42,3.48-.96-.5-3.21-3.38-3.93-4.37-9.42-13.11-6.48-31.62,6.37-41.23,8.1-6.06,17.04-7.39,26.81-4.91,3.11.79,9.51,3.43,12.27,3.49,3.13.07,8.12-6.04,10.52-8.17,9.88-8.78,21.39-10.88,33.37-4.61.84.44,2.34,1.71,3.16,1.75l21.57-4.42c3.71-.76,6.97,2.3,6.65,6.01-.12,1.38-.87,2.31-1.37,3.52-.17.39-.57,1.09-.43,1.49l42.06-12.13c.28.02.58-.03.85,0ZM133.71,66.91l5.2,8.08,11.31-3.4c.4-.29,1.74-3.2,2.05-3.91.59-1.31,2.73-4.74-.11-4.6l-18.45,3.82ZM208.45,81.38l-54.67,30.6c-2.33.57-3.79-2.26-1.84-3.75l61.09-34.51c.35-.92-.02-2.02-1.1-2.07l-63.53,29.21c-2.54.78-4.18-2.02-2.03-3.73l62.72-29.04c1.45-.58,1.4-2.09-.13-2.45l-68.44,25.65c-.29.17-.42.44-.54.73-.62,1.43-.91,3.34-1.63,4.97-5.66,12.88-19.98,17.8-31.68,9.16-4.77-3.52-12.55-11.87-17.91-13.18-8.25-2.01-16.35,3.05-17.65,11.52-.41,2.64,0,5.37-.45,7.95,3.08-.74,5.61-1.32,8.81-.82,14.16,2.2,13.93,14.94,18.63,25.23,3.83,8.39,13.87,11.77,22.18,7.83l84.83-56.96c1.97-1.58,3.56-3.69,3.34-6.35Z"/>
        <path class="cls-1" d="M153.94,168.63v17.77c0,.15-.58.97-.77,1.14-1.57,1.37-3.82.45-4.11-1.59l-.02-23.82c.17-2.5,3.13-3.65,5.01-2.02l13.84,18.94.53-.32v-17.88c0-.08.78-1.01.99-1.14,1.68-1.1,3.68.12,3.89,2.01-.47,7.39.69,15.68.02,22.96-.29,3.09-2.57,4.64-5.19,2.64-4.58-5.61-8.43-12.31-13.03-17.84-.28-.34-.65-.89-1.15-.87Z"/>
        <path class="cls-1" d="M232.59,187.5c-.24-.23-.48-.99-.62-1-3.22,1.77-6.66,2.18-10.1.75-1.76-.73-4.18-2.72-4.46-4.7-.79-5.67,5.1-7.8,9.67-8.17.8-.07,3.91.28,4.12-.35.54-4.33-5.12-4.27-7.93-3.03-1.25.55-2.33,1.97-3.74,1.12-2.19-1.33-.11-3.34,1.36-4.14,5.6-3.05,14.69-1.28,15.24,6.06.29,3.9-.22,8.18-.02,12.13-.2,1.69-2.3,2.52-3.53,1.32ZM231.24,177.79c-2.3-.46-8.3-.3-9.06,2.55-1.1,4.15,5.65,5.81,8.2,3.09.19-.21.85-1.3.85-1.49v-4.15Z"/>
        <path class="cls-1" d="M50.65,174.38c.86-4.51-4.87-4.75-7.82-3.45-1.3.58-2.66,2.32-4.1.99-3.23-2.98,5.05-5.37,7.12-5.43,3.81-.09,9.22,2.25,9.7,6.5.46,4.1-.35,9.01,0,13.2-.27,2.26-3.19,2.46-4.05.41l-.28-.07c-3.82,2.24-8.33,2.16-11.93-.49-3.39-2.49-3.26-6.75-.03-9.32,2.98-2.38,7.76-2.38,11.39-2.35ZM50.65,177.79c-2.23-.35-5.92-.34-7.77,1.07-4.37,3.34,2.25,7.84,6.35,5.07.39-.26,1.42-1.39,1.42-1.77v-4.36Z"/>
        <path class="cls-1" d="M113.47,174.38c.75-4.52-4.84-4.77-7.81-3.45-1.31.58-3.06,2.54-4.43.68-1.83-2.5,3.63-4.51,5.37-4.84,4.89-.91,11.28,1.19,11.77,6.85.27,3.13.29,9.25,0,12.36-.22,2.45-3.08,2.81-4.06.61l-.28-.07c-3.88,2.55-10.68,1.97-13.44-1.95-3.87-5.51,3.34-10.2,8.29-10.2h4.58ZM113.47,177.79c-2.53-.51-9.07-.33-9.18,3.3-.12,3.78,6.38,4.86,8.54,2.13.12-.15.64-1,.64-1.06v-4.36Z"/>
        <path class="cls-1" d="M130.47,166.57c14.85-1.16,14.88,23.1-.91,21.64-11.63-1.08-11.97-20.64.91-21.64ZM130.25,170.39c-5.67.82-5.61,12.38-.8,13.89,3.6,1.13,6.39-1.42,6.8-4.92.49-4.27-.47-9.76-5.99-8.97Z"/>
        <path class="cls-1" d="M186.05,166.57c7.58-.57,11.51,5.03,10.9,12.17-1.05,12.42-19.28,13.08-20.44.21-.58-6.48,2.75-11.87,9.54-12.38ZM185.83,170.39c-5.92.85-5.42,13.21-.47,13.98,5.82.91,7-4.35,6.46-9.01-.39-3.37-2.48-5.48-5.99-4.97Z"/>
        <path class="cls-1" d="M24.84,159.33c2.35-.24,7.22.4,9.19,1.75,1.78,1.22.71,4.09-1.54,3.67-1.68-.32-2.99-1.34-5.17-1.44-12.38-.59-12.56,23.06,1.64,20.58,1.65-.29,5.08-2.14,5.83.27.95,3.04-5.72,3.94-7.68,4.05-18.04,1-18.43-27.24-2.28-28.88Z"/>
        <path class="cls-1" d="M62.93,167.22c.29.28.83,1.62,1.03,1.63,5.15-3.82,13.12-3.73,13.74,4.15.25,3.13.34,9.74,0,12.78s-4.58,3.31-4.91-.2.68-9.3-.26-12.51c-1.18-4.05-8.4-2.15-8.69,1s.69,9.83-.32,12.45c-.91,2.4-4.46,1.97-4.79-.73-.63-5.21.47-11.67.02-17.02.34-1.92,2.7-2.94,4.17-1.54Z"/>
        <path class="cls-1" d="M97.22,186.66c-.3.32-1.48.75-1.95.92-1.13.4-3.08.23-2.63,1.88,4.6,1.3,4.01,7.2-.78,7.69-1.68.17-4.91-.46-3.3-2.66.96-.47,5.16,1.03,4.43-1.44-.6-2.05-3.49.66-4.8-.85-1.19-1.37.93-3.58.58-3.98-7.78-.62-10.19-9.37-7.56-15.75,2.29-5.54,8.8-6.99,14.11-5.17.92.32,2.25.8,2.38,1.89.45,3.56-4.75,1.07-6.71,1.14-7.08.26-7.26,11.63-2.44,13.74,3.13,1.37,4.68-.18,7.38-.31,1.61-.08,2.37,1.74,1.28,2.9Z"/>
        <path class="cls-1" d="M207.39,180.55c.16.13.45-.48.53-.64,1.6-3.35,2.6-9.09,4.49-12.11,1.58-2.52,5.23-1,4.36,2.23-1.45,5.39-4.95,11.18-6.57,16.63-1.45,2.18-4.25,1.93-5.41-.43-2.55-5.2-4.22-11.44-6.69-16.74-.4-2.51,2.66-3.94,4.35-1.99l4.93,13.06Z"/>
        <path class="cls-1" d="M106.4,159.31c1.85-.23,3.43,1.45,4.84,1.45s3.36-2.26,4.58-.76c1.56,1.91-2.62,3.73-4.04,3.85-1.49.13-2.77-1.36-4.17-1.4-1.49-.05-3.17,1.83-4.47.87-2.23-1.65,1.72-3.82,3.26-4.01Z"/>
        <circle class="cls-1" cx="81.6" cy="103.14" r="3.31"/>
      </g>
    </g>
  </g>
</svg>