<?xml version="1.0" encoding="UTF-8"?>
<svg id="Logos" xmlns="http://www.w3.org/2000/svg" viewBox="0 0 250 250">
  <defs>
    <style>
      .cls-1 {
        fill: #22942c;
      }

      .cls-2 {
        fill: #46b854;
      }
    </style>
  </defs>
  <g id="Futura">
    <g>
      <g>
        <path class="cls-2" d="M193.16,95.95c-.27.01-.1-.63-.11-.59-1.42,8.57-5.88,14.87-13.47,19.21-2.35,1.34-6.51,2.94-9.19,3.44-.22.04-.43-.04-.63-.13-.49-.1-.4-.32-.29-.15.32.47-4.19.41-4.82.38-23.28-1.09-35.65-27.45-21.09-45.75,1.84-2.31,8.71-8.62,11.49-8.43.2.01.39.06.58.11l1.09.09c7.16,4.36,14.69,9.23,18.99,16.66.08.14.1.32.11.52s-.01.4-.05.6l-.79-.18c-9.49-10.5-26.44.49-20.5,13.42,5.94,12.92,25.52,6.95,23.48-7.05l.38-.67c-.89-8.62-3.4-17.98-9.1-24.56l.04-.52-1.11-.71c-26.17-34.21-81.13-17.98-84.32,25.4-3.18,43.27,49.3,67.08,80.01,37.05l1.27-.59.7-.32c15,.4,24.8-12.37,27.02-26.29l.31-.43c-2.37,28.62-25.61,52.34-54,56-57.39,7.39-93.62-60.78-54.92-103.88,38.57-42.96,109.71-15.07,109.42,42.41l-.5,4.98Z"/>
        <path class="cls-1" d="M193.16,95.95c-.01.16.02.33,0,.49-1.71,13.23-9.65,25-23.54,27.01-1.32.19-3.25.49-4.48.03l.11-.84c.45-.66,3.39-4.43,3.71-4.61.25-.14.52-.2.81-.16.84-.87,3.33-1.08,4.68-1.53,9.25-3.1,16.9-11.36,18.47-21.12.39-.07.26.49.24.73Z"/>
        <path class="cls-1" d="M167.08,62.09l1.71.24c.16.02.36-.04.49,0,.92.26,3.39,4.43,3.94,5.44,2.94,5.42,4.79,11.93,5.32,18.07.04.46.17,1.26-.2,1.57-.4-2.02-1.28-3.92-2.57-5.52-4.27-8.06-12.52-13.27-20.14-17.85,4.04-1.6,7.1-1.99,11.45-1.95Z"/>
        <path class="cls-2" d="M168.79,62.34c-.53-.07-1.36.22-1.71-.24.53,0,1.37-.18,1.71.24Z"/>
      </g>
      <g>
        <path class="cls-2" d="M142.72,186.82v17.17c0,.33.57,2,.76,2.41,1.33,2.74,5.62,2.59,7.85,1.09,1.64-1.11,3.09-4.24,3.09-6.17v-14.5h7.07v26.8h-6.34l.24-3.9c-3.76,5.84-14.96,6.59-18.4.25-.27-.49-1.09-2.4-1.09-2.81v-20.34h6.82Z"/>
        <path class="cls-2" d="M120.3,178.54v8.28h10.72c-.22.73-.87,5.85-1.34,5.85h-9.38v11.08c0,.11.35,1.28.44,1.51,1.43,3.95,6.21,2.85,9.31,1.78-.25,1.37-.13,5.48-1.28,6.15-2.85,1.65-8.36,1.55-11.22-.1-2.31-1.33-4.31-5.25-4.31-7.88v-12.55h-5.24c-.78-1.74-.9-3.94-1.34-5.85h6.58v-6.21c2.21-.92,4.72-1.43,7.07-2.07Z"/>
        <polygon class="cls-2" points="69.62 177.08 70.59 181.71 51.58 181.71 51.58 194.86 69.13 194.86 68.15 199.49 51.58 199.49 51.58 213.62 46.22 213.62 46.22 177.08 69.62 177.08"/>
        <path class="cls-2" d="M82.29,186.82v18.88c0,.27.78,1.81,1.02,2.15,2.15,3.08,7.96,2.22,10.32-.32.83-.9,2.31-3.83,2.31-5v-15.71h5.36v26.8h-5.12l.48-3.9c-3.28,4.21-9.18,5.73-14.19,3.84-2.68-1.01-5.54-4.17-5.54-7.13v-19.61h5.36Z"/>
        <path class="cls-2" d="M177.08,186.82l-.37,5.6c1.56-3.99,5-6.5,9.35-6.3l1.5,8.98h-3.53c-.68,0-3.1,1.17-3.65,1.71-.6.58-1.83,3.02-1.83,3.77v13.03h-9.26v-26.8h7.8Z"/>
        <path class="cls-2" d="M204.01,186.08c-1.52-.09-10.23.34-10.98,1.23-.81.95-1.05,5.92-1.83,7.31,3.8-.63,7.9-1.79,11.76-.91,1.83.42,3.64,1.51,3.6,3.59h-8.89c-.61,0-2.92.54-3.64.74-4.06,1.17-5.37,3.81-5.02,7.91.78,9.18,15.02,11.47,19.74,4.01l-.48,3.65h7.55v-17.91c0-6.66-6.13-9.29-11.81-9.63ZM199.81,207.58c-1.21-.68-1.99-2.07-1.4-3.46.15-.36,1.35-1.22,1.7-1.22h6.46c.52,3.91-3.23,6.68-6.75,4.68Z"/>
      </g>
    </g>
  </g>
</svg>