<?xml version="1.0" encoding="UTF-8"?>
<svg id="Logos" xmlns="http://www.w3.org/2000/svg" viewBox="0 0 250 250">
  <defs>
    <style>
      .cls-1 {
        fill: #7c7c7c;
      }

      .cls-2 {
        fill: #eba01f;
      }
    </style>
  </defs>
  <g id="Gazeta">
    <g>
      <g>
        <path class="cls-2" d="M55.39,90.39c3.2.38,5.63,2.89,6.85,5.71,1.13,2.63,1.92,5.51,2.91,8.2h-29.58c-6.42-.32-14.14,6.28-14.14,12.78v10.81l-13.92-37.49h47.87Z"/>
        <g>
          <path class="cls-2" d="M61.37,136.42c-.12.82-.9,1.82-1.7,2.08-8.15.19-16.42.19-24.57,0-.86-.42-1.62-1.07-1.71-2.07-.38-4.05,0-9.43.02-13.62,0-.56,0-1.09,0-1.65.02-2.18-.75-5.39,2.03-5.98h33.86s1.91,4.99,1.91,4.99h-28.51c-.56,0-1.2,1.06-1.27,1.6-.26,1.8-.2,7.03-.02,8.91.07.77.75,1.88,1.6,1.88h18.38c-.12,1.2.16,2.7,0,3.86Z"/>
          <path class="cls-2" d="M39.97,162.96c-3.45-.27-6.28-2.16-7.71-5.3s-2.28-6.75-3.71-9.9c2.07.81,4.16,1.63,6.42,1.75,8.13-.4,16.74.51,24.82,0,5.79-.37,10.95-4.24,12.78-9.75,1.39-4.21.42-8.88.83-13.23l13.16,36.44h-46.59Z"/>
        </g>
      </g>
      <g>
        <polygon class="cls-2" points="230.32 84.8 242.34 175.2 209.14 84.8 230.32 84.8"/>
        <g>
          <path class="cls-1" d="M127.31,122.44h-18.3v-6.95h29.8v5.97l-19.21,20.79h19.21v6.95h-36l-2.26-6.28-13.83-.05-2.51,6.18-3.98-10.76-.1-.79,8.15-22.1,10.67.08,9.98,26.76,18.38-19.8ZM89.2,136.2h8.92l-4.46-12.1-4.46,12.1Z"/>
          <path class="cls-1" d="M169.67,115.49v6.73s-.21.23-.23.23h-19.28v6.2h16.56s.23.21.23.23v6.73h-16.79v6.65h19.51v6.95h-27.45s-.23-.21-.23-.23v-33.49h27.68Z"/>
          <path class="cls-1" d="M194.47,149.2l12.27-33.84,10.5-.03,12.62,33.88h-8.39l-2.33-6.26c-4.64-.19-9.39-.06-14.06-.07l-2.37,6.33h-8.24ZM216.55,136.2l-4.46-12.25-4.46,12.25h8.92Z"/>
          <path class="cls-1" d="M201.13,115.49v6.8h-10.36s-.23.21-.23.23v26.68h-8.32v-26.68s-.21-.23-.23-.23h-10.36v-6.8h29.49Z"/>
        </g>
      </g>
    </g>
  </g>
</svg>