<?xml version="1.0" encoding="UTF-8"?>
<svg id="Logos" xmlns="http://www.w3.org/2000/svg" viewBox="0 0 250 250">
  <defs>
    <style>
      .cls-1 {
        fill: #400093;
      }
    </style>
  </defs>
  <g id="GE_TV" data-name="GE TV">
    <path id="path2" class="cls-1" d="M75.36,107.11c-13.01,0-23.96-10.33-23.96-25.4s10.95-25.4,23.96-25.4,23.75,10.12,23.75,25.4-10.74,25.4-23.75,25.4M118.94,34h-14.04c-3.1,0-4.96,1.86-4.96,4.96v5.37c-5.58-6.82-15.9-11.98-26.23-11.98-25.2,0-46.89,21.48-46.89,49.57s20.45,47.5,46.27,47.5c11.57,0,20.45-5.37,25.61-10.95-.21,19.62-10.53,28.5-28.3,28.5-9.5,0-18.38-2.89-28.71-9.5-2.68-1.86-5.78-1.24-7.23,1.65l-6.2,12.19c-1.45,2.89-1.03,5.58,1.86,7.44,12.81,8.26,27.88,12.39,40.89,12.39,34.08,0,52.87-18.38,52.87-60.72V38.96c0-3.1-1.86-4.96-4.96-4.96M154.62,70.35c2.68-9.71,10.95-16.73,22.51-16.73,9.5,0,17.76,5.99,20.45,16.73h-42.96ZM176.51,32.35c-26.02,0-47.5,21.48-47.5,49.57s21.48,49.57,48.95,49.57c22.1,0,38.62-9.71,44.4-27.26,1.03-3.1-.41-5.37-3.92-5.37h-15.7c-2.69,0-4.34,1.03-5.99,3.3-3.92,5.16-9.71,7.44-17.76,7.44-12.6,0-22.1-8.06-24.58-20.24h65.06c3.1,0,4.96-1.86,4.96-4.96v-.21c0-28.91-17.97-51.84-47.92-51.84h0Z"/>
    <path id="path4" class="cls-1" d="M135.81,136.54l-5.78,5.62-1.27,10.3-4.52-.55-6.21,6.04-2.36,19.2h10.05l-1.86,15.11h0c-.35,2.85-.65,5.88-.39,9.05.26,3.22,1.16,6.63,3.31,9.52,2.53,3.4,6.32,5.42,10.23,6.18,3.87.75,7.75.29,11.29-.79,2.99-.91,5.84-2.27,8.49-4.02,1.3-.81,3-1.97,4.24-2.81.52-.35,1.15-.86,1.83-1.45l2.39,8.49h16.62l6.49-6.31,30.5-58.21h-23.29l-5.98,5.82-7.04,15.14-4.47-20.95h-23.73l1.89-15.37h-20.44ZM139.13,140.43h13.11l-1.89,15.37h24.98l7.09,33.25,15.45-33.25h14.68l-26.46,50.5h-11.69l-10.98-39.29-14.36.05-2.54,19.83c-.15,1.16-.23,2.34-.08,3.51.15,1.16.57,2.32,1.4,3.16.71.71,1.66,1.14,2.65,1.31.99.17,2,.09,2.99-.1,1.63-.32,3.2-.97,4.58-1.89l3.38,9.91c-2.31,1.59-4.87,2.82-7.55,3.63-3.15.96-6.52,1.34-9.76.72-3.23-.63-6.32-2.32-8.28-4.97-1.67-2.25-2.46-5.07-2.69-7.87-.23-2.8.04-5.61.38-8.4l2.32-18.89h-9.65l1.38-11.21h9.65l1.89-15.37Z"/>
  </g>
</svg>