<?xml version="1.0" encoding="UTF-8"?>
<svg id="Logos" xmlns="http://www.w3.org/2000/svg" viewBox="0 0 250 250">
  <defs>
    <style>
      .cls-1 {
        fill: #61709d;
      }
    </style>
  </defs>
  <g id="Record">
    <g>
      <path class="cls-1" d="M86.86,28.3c25.56-13.52,55.71-12.98,80.74,1.47,19.96,11.52,34.38,31,39.56,53.45h.06s-.06,0-.06,0c1.19,4.99.43,10.18-2.13,14.62-.29.5-.61,1-.94,1.47-.64.91-1.21,1.39-1.81,1.73-.47.27-1.03.3-1.5.03-.27-.15-.47-.38-.59-.65C182.3,57.87,122.24,17.93,86.86,28.3"/>
      <path class="cls-1" d="M209.24,104.92c-1.07,28.88-16.61,54.7-41.64,69.15-19.96,11.52-44.06,14.26-66.1,7.51l-.02.05v-.05c-4.9-1.46-9.02-4.72-11.59-9.16-.29-.5-.57-1.02-.81-1.55-.46-1.01-.59-1.74-.59-2.43,0-.54.26-1.04.72-1.31.26-.15.56-.22.87-.19,45.82,5.78,110.46-26.22,119.17-62.02"/>
      <path class="cls-1" d="M81.64,172.52c-24.49-15.36-39.1-41.72-39.1-70.61,0-23.03,9.67-45.25,26.54-60.97l-.04-.04.04.04c3.73-3.52,8.61-5.46,13.74-5.46.58,0,1.17.02,1.75.08,1.1.1,1.81.36,2.4.7.47.27.77.74.77,1.28,0,.3-.09.6-.27.84-27.92,36.76-32.51,108.7-5.84,134.14"/>
      <path class="cls-1" d="M87.01,163.32c.89-.51,1.9-.78,2.92-.78.19,0,.39,0,.58.03.04,0,.07,0,.11.01,3.4.43,6.98.64,10.68.64h0c20.62,0,45.1-6.89,65.48-18.42,20.43-11.56,34.21-26.15,37.98-40.15-.1.06-.19.12-.3.18-.91.52-1.95.8-2.99.8s-2.02-.27-2.9-.78c-1.07-.61-1.9-1.53-2.4-2.65-.01-.03-.03-.07-.04-.11-7.29-17.32-22.48-35.27-41.67-49.26-19.04-13.87-39.19-21.82-55.29-21.82-3.69,0-7.15.43-10.3,1.27.1.05.2.11.3.16,1.83,1.06,2.97,3.01,2.97,5.08,0,1.23-.38,2.41-1.1,3.4-.02.03-.04.06-.07.09-12.76,16.8-21.17,42.55-22.51,68.88-1.3,25.83,4.53,47.73,15.63,58.86,0-.11,0-.23,0-.35,0-2.11,1.12-4.07,2.92-5.11"/>
      <path class="cls-1" d="M54.13,215.25c1.82,0,3.23-.4,4.23-1.2.99-.8,1.49-1.93,1.49-3.39s-.51-2.59-1.52-3.37c-1.01-.78-2.41-1.17-4.2-1.17h-5.09v9.13h5.09ZM42.54,200.45h12.02c2.51,0,4.68.43,6.51,1.29,1.82.86,3.22,2.06,4.2,3.59.98,1.53,1.47,3.27,1.47,5.23s-.5,3.79-1.49,5.32c-.99,1.53-2.35,2.72-4.08,3.57l7.28,11.48h-7.77l-5.82-10.02h-5.82v10.02h-6.5v-30.49Z"/>
      <path class="cls-1" d="M70.1,200.45h22.2v6.06h-15.5v6.06h13.68v5.77h-13.68v6.54h15.98v6.06h-22.68v-30.49Z"/>
      <path class="cls-1" d="M100.35,229.49c-2.28-1.32-4.03-3.16-5.23-5.54-1.21-2.37-1.81-5.13-1.81-8.25,0-2.77.57-5.35,1.71-7.74,1.14-2.39,2.86-4.32,5.16-5.79,2.3-1.46,5.11-2.2,8.43-2.2,2.57,0,4.89.54,6.94,1.62,2.05,1.07,3.67,2.72,4.84,4.93l-4.65,3.57c-1.63-2.57-3.99-3.86-7.09-3.86-2.74,0-4.83.9-6.28,2.69-1.45,1.79-2.18,4.05-2.18,6.79s.74,5.05,2.23,6.84c1.48,1.79,3.51,2.68,6.08,2.68,1.66,0,3.12-.36,4.38-1.07,1.26-.72,2.29-1.69,3.1-2.93l4.59,3.52c-1.17,2.25-2.81,3.93-4.91,5.05-2.1,1.12-4.49,1.68-7.16,1.68-3.16,0-5.88-.66-8.16-1.98"/>
      <path class="cls-1" d="M129.81,222.6c1.54,1.74,3.59,2.61,6.13,2.61s4.6-.87,6.16-2.61c1.56-1.74,2.35-4.05,2.35-6.91s-.77-5.16-2.3-6.89c-1.53-1.73-3.57-2.59-6.11-2.59s-4.61.86-6.19,2.59c-1.58,1.73-2.37,4.02-2.37,6.89s.77,5.17,2.32,6.91M127.85,229.42c-2.33-1.37-4.13-3.25-5.38-5.64-1.26-2.39-1.88-5.1-1.88-8.13s.65-5.55,1.96-7.94c1.31-2.39,3.13-4.28,5.48-5.67,2.34-1.38,5-2.08,7.97-2.08s5.8.68,8.12,2.03c2.32,1.35,4.1,3.22,5.35,5.59,1.26,2.38,1.88,5.07,1.88,8.06s-.64,5.65-1.93,8.06c-1.29,2.41-3.1,4.31-5.43,5.69-2.33,1.39-5,2.08-8,2.08s-5.81-.68-8.14-2.05"/>
      <path class="cls-1" d="M165.4,215.25c1.83,0,3.24-.4,4.23-1.2.99-.8,1.49-1.93,1.49-3.39s-.5-2.59-1.52-3.37c-1.01-.78-2.41-1.17-4.2-1.17h-5.08v9.13h5.08ZM153.81,200.45h12.03c2.51,0,4.68.43,6.5,1.29,1.82.86,3.23,2.06,4.2,3.59.98,1.53,1.47,3.27,1.47,5.23s-.5,3.79-1.49,5.32c-.99,1.53-2.36,2.72-4.08,3.57l7.28,11.48h-7.77l-5.82-10.02h-5.82v10.02h-6.5v-30.49Z"/>
      <path class="cls-1" d="M193.25,224.63c2.87,0,5.1-.78,6.7-2.34,1.6-1.56,2.4-3.78,2.4-6.64s-.78-5.07-2.35-6.6c-1.56-1.53-3.79-2.29-6.69-2.29h-5.14v17.88h5.08ZM181.37,200.45h11.93c3.32,0,6.18.64,8.58,1.91,2.39,1.27,4.22,3.05,5.48,5.35,1.25,2.3,1.88,4.94,1.88,7.94s-.65,5.6-1.95,7.91c-1.31,2.31-3.16,4.12-5.55,5.42-2.4,1.3-5.21,1.95-8.43,1.95h-11.93v-30.49Z"/>
    </g>
  </g>
</svg>