<?xml version="1.0" encoding="UTF-8"?>
<svg id="Logos" xmlns="http://www.w3.org/2000/svg" viewBox="0 0 250 250">
  <defs>
    <style>
      .cls-1 {
        fill: rgba(0, 88, 255, .91);
      }

      .cls-2 {
        fill: rgba(0, 89, 255, .99);
      }
    </style>
  </defs>
  <g id="Rede_TV" data-name="Rede TV">
    <path id="path11" class="cls-1" d="M212.04,128.86c-.62-13.13-.92-19.86-1.24-37.71-.17-9.58,6.24-24.7,23.8-18.85,15.82,5.27,12.83,21.48,7.42,28.13l-22.87,28.13c-4.75,5.84-6.97,3.26-7.11.31Z"/>
    <ellipse id="path13" class="cls-2" cx="205.24" cy="155.29" rx="18.24" ry="18.08"/>
    <path id="path45" class="cls-2" d="M17.98,106.59l-12.51,32.16h8.02l4.98-12.78,3.75.15c7.58.14,4.32,7.08,2.11,12.63l8.21.15s3.29-6.88,2.93-10.49c-.17-1.67-.42-3.07-2.28-4.48,2.55-2.18,4.9-2.68,6.02-7.03.75-1.92.88-4.29.71-5.73-.16-1.46-.75-2.59-1.78-3.38-1.02-.8-2.41-1.19-4.17-1.19h-15.99ZM23.73,112.43h7.48c2.22.71,2.02,2,1.65,3.78-.55,1.53-1.66,2.41-2.78,3.31-.59.31-1.19.46-1.81.46h-7.48l2.94-7.56Z"/>
    <path id="path49" class="cls-2" d="M85.67,106.15l-12.67,32.6h10.86c2.82,0,5.39-.49,7.71-1.46,2.32-.97,4.31-2.33,5.95-4.08,1.66-1.75,2.95-3.8,3.86-6.14l3.59-9.24c.96-2.47,1.27-4.57.94-6.32s-1.29-3.08-2.88-3.99c-1.58-.91-3.74-1.37-6.48-1.37h-10.88ZM90.5,112.07h3.89c2.04,0,3.42.49,4.16,1.46.74.97.76,2.35.07,4.13l-3.73,9.59c-.69,1.78-1.78,3.16-3.28,4.13s-3.26,1.46-5.3,1.46h-3.89l8.07-20.76Z"/>
    <path id="path53" class="cls-2" d="M145.18,106.62l-1.8,6.62h8.07l-8.09,26.44h7.67l8.09-26.44h9.3l1.8-6.62h-25.05Z"/>
    <path id="path55" class="cls-2" d="M176.49,106.62h6.84l-1.08,22.16,13.36-22.16h6.53l-20.43,33.22h-6.42l1.2-33.22Z"/>
    <path id="path23" class="cls-2" d="M71.99,121.72c-.24,1.6-1.88,3.26-3.43,3.01h-17.07c-.81,2.8-.86,6.03,1.36,7.37,5.05.25,9.02-.29,14.03-.43,1.9.06,1.4,4.78-1.62,7.06-6.8.69-12.93,1.15-17.52-.58-3.34-1.3-5.05-4.57-4.93-8.52.14-4.39,1.37-9.11,3.71-13.47,2.33-4.42,6.55-8.31,11.13-9.64,3.78-1.1,7.62-1.07,10.72.2,3.42,1.38,5.13,5.1,4.73,9.21-.1,1.9-.58,3.86-1.12,5.8h0ZM64.89,119.31c.84-2.69.94-5.91-1.29-7.09-2.29-1.13-5.93-.45-8.11,2.26-1.16,1.4-2.22,3.36-2.45,4.83h11.85Z"/>
    <path id="path23-7" class="cls-2" d="M138.42,121.55c-.24,1.6-1.88,3.26-3.43,3.01h-17.07c-.81,2.8-.86,6.03,1.36,7.37,5.05.25,9.02-.29,14.03-.43,1.9.06,1.4,4.78-1.62,7.06-6.8.69-12.93,1.15-17.52-.58-3.34-1.3-5.05-4.57-4.93-8.52.14-4.39,1.37-9.11,3.71-13.47,2.33-4.42,6.55-8.31,11.13-9.64,3.78-1.1,7.62-1.07,10.72.2,3.42,1.38,5.13,5.1,4.73,9.21-.1,1.9-.58,3.86-1.12,5.8h0ZM131.31,119.14c.84-2.69.94-5.91-1.29-7.09-2.29-1.13-5.93-.45-8.11,2.26-1.16,1.4-2.22,3.36-2.45,4.83h11.85Z"/>
  </g>
</svg>