<?xml version="1.0" encoding="UTF-8"?>
<svg id="Logos" xmlns="http://www.w3.org/2000/svg" viewBox="0 0 250 250">
  <defs>
    <style>
      .cls-1 {
        fill: #009eff;
      }

      .cls-2 {
        fill: #ffd62c;
      }
    </style>
  </defs>
  <g id="Rede_Vida" data-name="Rede Vida">
    <g>
      <path class="cls-1" d="M199.18,208.84c-.61.76-.85,1.33-1.68,1.85-1.88,1.17-3.75,1.95-6.07,2.55l-18.19.06c-.28,0-.54-.58-.54-.84l.04-22.64c0-.34.97-.64,1.3-.63l14.83.13c3.46.03,7.54.67,9.34,3.36l.84,1.26c.84,1.27,4.05,3.98,3.22,8.99-.38,2.33-1.59,4.02-3.09,5.9ZM195.32,202.63c.97-3.18-2-6.19-4.49-6.34-3.49-.22-6.78-.03-10.32-.06l-.06,10.3h10.38c2.2,0,3.83-1.71,4.49-3.9Z"/>
      <path class="cls-1" d="M37.61,212.51c-1.81-2.32-3.46-4.5-5.41-6.68l-10.49-.05c-.31,0-1.17.25-1.21.6-.37,3.21.65,6.95-1.11,6.91-1.3-.03-2.46.09-3.82-.09-.31-2.33-.51-6.53-.21-8.63.14-.93.05-1.58-.02-2.49-.23-3.24-.08-6.46-.06-9.74,0-.79.34-1.5.27-2.37-.04-.42.82-.78,1.27-.77l19.25.11c2.66.02,4.87,1.23,6.58,3.03.69.72.78,1.29.94,2.28.17,1.13.81,2.35.27,3.56-1.51,3.41-.37,3.88-6.38,6.51.79,1,1.6,2.18,2.53,3.26l3.25,3.79c.28.32.92,1.37.27,1.48-1.44.23-2.8,0-4.22.09-.57.04-1.27-.25-1.69-.79ZM37.53,198.69c.41-.93.45-2.37-.14-3.18-.47-.64-1.64-1.35-2.47-1.35l-13.93-.02c0,3.34-.73,2.63.06,5.69h13.87c.89,0,2.15-.12,2.6-1.14Z"/>
      <path class="cls-1" d="M210.32,210.42c-.25.68-1.73,2.86-2.17,2.86l-7.99.03c-.23-.84.48-1.19.8-1.78,1.04-1.89,2.26-3.59,3.35-5.45l1.83-3.12,6.84-10.77c.61-.97,1.07-2.46,2.33-2.81s3.29-.31,4.51.04c1.46,1.64,2.44,3.46,3.59,5.29l7.66,12.27c1.3,2.08,2.57,3.94,3.74,6.3l-8.4-.1c-.96-.35-1.19-1.87-1.74-2.7l-14.33-.06ZM217.22,205.31c1.47.04,2.91.55,4.3-.21-1.73-2.17-2.43-4.68-4.16-6.61-1.84,2.4-2.61,4.45-4.15,6.71l4,.11Z"/>
      <path class="cls-1" d="M99.59,201.87c.03.73-.74,4.02-.88,4.27-2.23,4.03-6.4,6.55-10.94,7.17l-17.54-.07c-.35,0-.6-.94-.6-1.3v-21.12c0-.91.7-1.63,1.57-1.62l14.87.12c4.45.04,10.64,2.89,12.51,7.16.47,1.07.96,4.1,1.02,5.39ZM93.99,204.01c.36-1.49.21-2.73.04-4.2-.44-3.72-3.31-4.98-6.53-5.7l-10.12.02c-.71,0-1.78.05-2.28.58l-.05,12.89c0,.6.47,1.04,1.05,1.04h10.89c2.9,0,6.19-1.31,7.01-4.63Z"/>
      <path class="cls-1" d="M152.36,189.21h5.58c.67.01,1.29.25,1.8.38l-13.21,21.34c-.52.84-1.13,1.45-1.57,2.36l-5.44-.02-13.19-21.18c-.54-.86-1.12-1.41-1.63-2.5.53-.11,1.08-.36,1.67-.36h6.65c1.16,1.15,1.81,2.53,2.61,3.9l4.02,6.85c.81,1.38,1.41,2.76,2.76,3.8.45-.62.89-1.09,1.25-1.69l6.91-11.71c.37-.63.91-1.19,1.8-1.19Z"/>
      <path class="cls-1" d="M50.56,209.34l14.63.09c.68,0,1.31.28,1.92.36.63,1.18.51,2.36-.13,3.51l-21.08-.05c-.65-.54-.24-1.7-.19-2.34.27-3.07-.1-3.47,0-6.21.04-1.22-.49-2.36.11-3.63-.08.17-.08-4.53-.15-3.87.16-1.44.17-2.73.02-4.21-.09-.88.3-2.03-.21-3.01.31-.56,1.22-.79,1.89-.79l19.56.11c1.02.74.81,2.77.41,3.7-.68.07-1.07.34-1.62.34h-14.21c-.59,0-1.04.45-1.04,1.04v3.37c0,.66.45.98,1.05,1.01,4.23.23,8.39-.3,12.62.23,1.19.15,1.18,3.29.18,3.78-4.22.4-8.55.03-12.78.18-.62.02-1.07.4-1.06,1.01.04,1.74-.1,3.27.1,5.38Z"/>
      <path class="cls-1" d="M106.23,202.94l-.1,6.46h13.19c.54.01.97.38,1.59.25.47-.11,1.49-.23,1.81.22.71,1.03.54,2.36-.05,3.41h-21.27c-.34-2.13-.18-4.19-.05-6.35.22-3.61.23-7.25,0-10.87-.14-2.07-.19-3.99-.1-6.1.02-.35.64-.76,1.07-.76l19.84.03c1.19,0,1.4,1.39,1.38,2.27-.02,1.03-.57,1.79-1.66,1.8l-15.65.08c-.13,1.94-.12,3.68,0,5.63l14.05.03c.22,1.05.48,2.39-.06,3.5-.35.47-1.51.38-2.14.38h-11.83Z"/>
      <path class="cls-1" d="M169.77,201.67c.15,1.66,0,3.39-.05,5.04l-.2,6.52-7.18.05c-.26,0-.51-.56-.51-.83v-21.93c-.01-.78.54-1.32,1.29-1.32h5.14c.36,0,1.21.23,1.25.6.04.41.06,8.49.33,7.67-.47,1.44-.2,2.75-.07,4.19Z"/>
      <path class="cls-2" d="M186.94,133.02c.08-.1.16-.18.26-.26l1.33.68c-.72.29-1.11-.24-1.59-.42Z"/>
      <path class="cls-2" d="M126.85,169.01h.26c-.07.52.17,1.06-.14,1.57-.28-.6-.05-1.1-.12-1.57Z"/>
      <path class="cls-2" d="M124.01,25.3c-.45-.25-.23-.87-.26-1.29.46.31.22.88.26,1.29Z"/>
      <g>
        <path class="cls-2" d="M187.2,132.76c.1.22,0,.3-.26.26l-42.7-16.79c-1.47-.58-2.76-.96-4.14-1.64-1.49-.74-3.09-1.04-4.72-.53.25,1.24-.2,2.2-.36,3.26l-.54,3.59-.51,3.63-.54,3.57c-.17,1.11-.31,2.08-.48,3.15l-.57,3.58-1.23,8.27-.55,3.84-.49,3.13-1.34,8.91-.52,3.36c-.18,1.14-.26,2.22-.54,3.37s-.03,2.33-.62,3.3c-.07.23-.16.22-.26,0v-70.93c1.51.59,2.42,1.31,3.68,2.03l39.73,22.88,16.94,9.76Z"/>
        <path class="cls-2" d="M114.2,113.34l-48.14,18.92c-1.19.1-1.82,1-2.97.91l60.93-35.11-.09,71.54-8.37-55.25c-.14-.34-.12-.61-.23-.75-.13-.17-.51-.51-1.14-.26Z"/>
        <path class="cls-2" d="M168.15,68.8l-13.57,7.75-4.6,2.68c-1.53.89-3.07,1.67-4.56,2.66-1.07.71-2.33,1.03-3.25,1.98-1.38.44-2.45,1.28-3.67,1.99l-11.37,6.52-.13-20.88-.17-50.36c.8,1.02.3,2.43.64,3.58s.38,1.96.56,3.15l7.19,47.86c.09.63-.06,1.03.32,1.38.41.38.96.28,1.52.06l11.33-4.5,39.11-15.32c-1.74,1.44-3.73,2.37-5.64,3.52l-6.74,3.87-6.97,4.06Z"/>
        <path class="cls-2" d="M123.75,24l.26,1.29c-.34,1.08-.18,1.92-.08,2.86.31,2.87-.08,5.54-.09,8.45l-.12,55.71-18.3-10.6-9.22-5.31-7.38-4.27-6.22-3.63-9.68-5.58-6.08-3.5c-1.1-.63-2.16-1.03-3.14-1.95,1.61.3,2.76,1.01,4.27,1.61l44.35,17.47c1.11.44,2.16.92,3.14.34l8.3-52.88Z"/>
        <path class="cls-2" d="M70.1,123.26c1.24-.63,2-1.47,3.04-2.29l30.57-24.26c.77-.61,1.46-1.72.54-2.46l-30.09-24-10.96-9.01,27.66,15.84,31.47,18.04-14.92,8.64-43.23,24.79,5.93-5.31Z"/>
        <path class="cls-2" d="M159.4,106.33l11.3,9.02,16.8,13.62-50.24-28.82-5.74-3.38c-.92-.54-1.98-.9-2.62-1.78l58.83-33.72-29.81,24.03-11.15,8.84c-.49.39-.56.76-.49,1.43.05.46.43.71.91,1.09l10.39,8.21c.61.48,1.14.91,1.83,1.45Z"/>
      </g>
    </g>
  </g>
</svg>