<?xml version="1.0" encoding="UTF-8"?>
<svg id="Logos" xmlns="http://www.w3.org/2000/svg" viewBox="0 0 250 250">
  <defs>
    <style>
      .cls-1 {
        fill: #4164b8;
      }
    </style>
  </defs>
  <g id="TV_Brasil" data-name="TV Brasil">
    <g id="g10">
      <g id="g12">
        <path id="path14" class="cls-1" d="M43.15,190.17l-13.08-32.43h-7.77v24.21c0,4.47,2.14,6.67,5.76,6.67,1.55,0,2.59-.52,3.82-1.23.97-.58,1.49-.26,2.01.45l.19.26c.65.84-.13,1.62-.65,2.01-1.68,1.1-3.37,1.68-5.63,1.68-5.57,0-9.06-3.37-9.06-9.78v-24.28h-4.21c-.84,0-1.36-.39-1.36-1.23v-.52c0-.78.52-1.23,1.36-1.23h4.21v-9.84c0-.65.39-1.29,1.29-1.42l.78-.13c1.04-.19,1.49.26,1.49,1.23v10.16h9.06c.84,0,1.23.45,1.62,1.3l11.59,29.52,11.59-29.52c.39-.84.78-1.3,1.62-1.3h1.04c.84,0,1.23.65.91,1.36l-13.72,34.05c-.39.84-.78,1.17-1.36,1.17h-.13c-.58,0-.97-.32-1.36-1.17"/>
        <path id="path16" class="cls-1" d="M82.32,164.6c3.11,0,5.05-2.52,5.05-5.24s-1.94-5.44-5.05-5.44h-5.11l-.07,10.68h5.18ZM83.55,182.8c3.75,0,6.02-2.59,6.02-5.57s-2.33-5.57-5.83-5.57h-6.6l-.06,11.14h6.47ZM65.68,187.97v-39.23c0-1.94,1.1-3.04,3.04-3.04h15.34c8.61,0,14.11,5.37,14.11,12.04,0,3.88-2.07,7.7-5.31,9.39,4.01,1.49,7.9,5.57,7.9,11.39,0,7.25-6.15,12.49-15.41,12.49h-16.64c-1.94,0-3.04-1.1-3.04-3.04"/>
        <path id="path18" class="cls-1" d="M106.33,188.04v-30.3c0-1.88,1.04-2.98,2.91-2.98h3.43c1.88,0,2.91,1.1,2.91,2.98v1.29c2.27-3.17,5.31-5.05,8.87-5.05,1.75,0,3.3.26,4.66.71,1.1.39,2.14.91,1.62,2.78l-1.23,4.86c-.52,1.81-1.62,2.2-2.72,1.75-1.04-.32-2.27-.65-3.37-.65-3.82,0-5.89,2.53-5.89,6.34v18.26c0,1.88-1.04,2.98-2.91,2.98h-5.37c-1.88,0-2.91-1.1-2.91-2.98"/>
        <path id="path20" class="cls-1" d="M146.99,184.67c3.24,0,5.96-2.4,5.96-4.98v-3.56c-1.17-.78-3.5-1.42-5.83-1.42-3.17,0-5.24,1.68-5.24,4.98s2.01,4.98,5.11,4.98h0ZM131.39,180.33c0-7.38,5.5-12.24,13.92-12.24,2.53,0,5.05.65,7.38,1.49v-1.29c0-3.37-2.14-6.28-5.89-6.28-3.17,0-5.7,1.1-7.25,2.01-1.42.78-2.85.65-3.75-1.16l-.71-1.49c-1.04-2.14-.58-3.24.78-4.08,3.17-2.01,7.83-3.3,11.72-3.3,7.83,0,15.47,3.82,15.47,15.41v18.26c0,2.2-1.04,3.37-2.98,3.37h-2.65c-1.88,0-2.91-1.23-2.91-3.37v-.39c-2.72,2.72-6.34,4.53-10.36,4.53-7.7,0-12.75-4.6-12.75-11.46"/>
        <path id="path22" class="cls-1" d="M169.39,186.61c-1.49-1.36-1.75-2.52-.26-4.34l1.55-1.88c1.49-1.81,2.91-1.29,4.34-.32,2.2,1.81,5.05,3.37,8.03,3.37,1.94,0,3.04-1.42,3.04-2.78,0-1.68-2.01-3.17-4.08-3.95-5.76-1.94-12.24-3.82-12.24-11.39,0-6.99,5.18-11.33,13.27-11.33,4.66,0,9.64,1.81,11.91,3.95,1.49,1.29,1.75,2.46.19,4.4l-1.36,1.68c-1.1,1.42-2.65,1.42-4.14.52-1.81-1.42-3.49-2.52-6.15-2.52-2.2,0-3.17,1.62-3.17,2.78,0,2.07,2.98,2.78,7.05,4.4,5.31,2.27,9.26,4.86,9.26,11.07,0,7.25-5.57,11.52-13.66,11.52-5.7,0-11.01-2.52-13.59-5.18"/>
        <path id="path24" class="cls-1" d="M202.47,188.04v-30.3c0-1.88,1.04-2.98,2.98-2.98h5.31c1.88,0,2.98,1.1,2.98,2.98v30.3c0,1.88-1.1,2.98-2.98,2.98h-5.31c-1.94,0-2.98-1.1-2.98-2.98ZM208.1,138.13c3.62,0,6.47,2.85,6.47,6.47s-2.85,6.47-6.47,6.47-6.47-2.91-6.47-6.47,2.91-6.47,6.47-6.47"/>
        <path id="path26" class="cls-1" d="M221.18,181.76v-34.31c0-1.88,1.03-2.59,2.98-2.98l5.25-.97c1.94-.39,3.04,1.04,3.04,2.98v34.31c0,.71.07,1.23.78,1.23.26,0,1.16-.19,1.62-.26,1.1-.19,2.01.13,2.33,1.81l.71,3.95c.32,1.81.06,2.33-1.03,2.98-2.07,1.1-4.01,1.36-5.76,1.36-6.47,0-9.9-3.43-9.9-10.1"/>
        <path id="path28" class="cls-1" d="M98.63,90.92c11.4,5.11,20.91,13.98,26.87,24.99,1.75,3.11,5.83,3.95,8.61,1.75,10.68-8.48,18.32-20.78,20.84-34.76.58-3.11-.52-6.21-2.85-8.35-8.48-7.7-19.23-12.95-31.2-14.5-2.53-.39-5.24.32-7.31,1.94-7.58,5.5-13.73,12.75-17.8,21.17-1.42,2.91-.2,6.41,2.85,7.77h0ZM82.25,89.43c0-23.95,19.36-43.38,43.38-43.38s43.38,19.42,43.38,43.38-19.42,43.38-43.38,43.38-43.38-19.42-43.38-43.38"/>
      </g>
    </g>
  </g>
</svg>