<?xml version="1.0" encoding="UTF-8"?>
<svg id="Logos" xmlns="http://www.w3.org/2000/svg" viewBox="0 0 250 250">
  <defs>
    <style>
      .cls-1 {
        fill: #7c7e8f;
      }
    </style>
  </defs>
  <g id="TV_Globo" data-name="TV Globo">
    <g>
      <g>
        <path class="cls-1" d="M114.42,109.92c-.77,0-1.16.36-1.43,1.04l-5.1,14.53-4.93-14.48c-.19-.68-.6-1.09-1.43-1.09h-4.79c-.94,0-1.21.68-.82,1.5l8.7,21.66c.27.63.77.99,1.45.99h3.63c.68,0,1.21-.36,1.45-.99l8.7-21.66c.36-.82.12-1.5-.82-1.5h-4.62Z"/>
        <path class="cls-1" d="M93.84,128.64c-.31-.75-.87-.94-1.64-.56-.53.27-1.09.41-1.91.48-1.64,0-2.59-1.16-2.59-3.07v-9.96h5.08c.7,0,1.23-.56,1.23-1.23v-3.12c0-.7-.56-1.23-1.23-1.23h-5.08v-6c0-.7-.56-1.23-1.23-1.23h-3.68c-.7,0-1.23.56-1.23,1.23v5.97h-3.43c-.77-.02-1.26.46-1.26,1.23v3.12c0,.7.56,1.23,1.23,1.23h3.31v10.11c0,5.59,2.9,8.87,7.62,8.87,2.18,0,3.99-.56,5.63-1.64.63-.41.75-.94.41-1.64l-1.23-2.56Z"/>
        <path class="cls-1" d="M150.03,99.82c-1.5-.68-2.54,0-2.54,1.64v31.09c0,1.64,1.04,2.32,2.54,1.64l1.98-.87c1.23-.56,1.81-1.43,1.81-2.76v-27.1c0-1.35-.56-2.18-1.81-2.76l-1.98-.89Z"/>
        <path class="cls-1" d="M223.95,109.49c-6.72,0-12.36,5.27-12.36,12.52s5.54,12.52,12.36,12.52,12.36-5.27,12.36-12.52-5.54-12.52-12.36-12.52ZM223.95,128.42c-3.36,0-6.04-2.71-6.04-6.43s2.71-6.43,6.04-6.43,6.04,2.71,6.04,6.43-2.73,6.43-6.04,6.43Z"/>
        <path class="cls-1" d="M197.45,109.49h-.07c-2.51,0-4.96,1.09-6.58,2.76v-11.07c0-.7-.56-1.26-1.23-1.26h-3.84c-.7,0-1.26.56-1.26,1.26v31.67c0,.7.56,1.23,1.26,1.23h3.53c.7,0,1.23-.56,1.23-1.23v-1.33c1.52,1.72,4.33,3.02,7.11,3.02,6.09,0,11.36-5.54,11.36-12.52s-5.3-12.52-11.51-12.52ZM196.67,128.42c-3.24,0-5.95-2.56-5.95-6.43s2.71-6.43,5.95-6.43,5.95,2.61,5.95,6.43c.02,3.89-2.68,6.43-5.95,6.43Z"/>
        <path class="cls-1" d="M169.21,109.49c-6.72,0-12.36,5.27-12.36,12.52s5.54,12.52,12.36,12.52,12.36-5.27,12.36-12.52-5.51-12.52-12.36-12.52ZM169.21,128.42c-3.34,0-6.04-2.71-6.04-6.43s2.71-6.43,6.04-6.43,6.04,2.71,6.04,6.43c.02,3.72-2.71,6.43-6.04,6.43Z"/>
        <path class="cls-1" d="M143,109.92h-3.53c-.7,0-1.26.56-1.26,1.23v1.35c-1.4-1.69-3.99-3.02-6.58-3.02-6.33,0-11.77,5.42-11.77,12.52s5.15,11.99,11.61,11.99c2.9,0,5.15-1.35,6.43-2.76-.07,4.96-2.66,7.21-7.11,7.21-2.39,0-4.62-.75-7.21-2.39-.68-.48-1.45-.31-1.81.41l-1.55,3.09c-.36.75-.27,1.43.48,1.86,3.22,2.1,7.01,3.14,10.28,3.14,8.56,0,13.3-4.64,13.3-15.33v-18.06c-.02-.68-.58-1.26-1.28-1.26ZM132.07,128.35c-3.29,0-6.04-2.61-6.04-6.43s2.76-6.43,6.04-6.43,6,2.56,6,6.43-2.71,6.43-6,6.43Z"/>
      </g>
      <path class="cls-1" d="M45.54,96.99c-13.73,0-24.95,11.22-24.95,24.95s11.22,25.02,24.95,25.02,25.02-11.22,25.02-25.02c-.02-13.73-11.27-24.95-25.02-24.95ZM62.61,133.74c-5.46.63-11.36.77-17.05.77s-11.63-.15-17.12-.77c-1.57-.15-2.32-.56-2.54-2.22-.29-3.17-.29-6.33-.29-9.6s0-6.41.29-9.55c.22-1.64.99-2.06,2.54-2.22,5.49-.63,11.41-.77,17.12-.77s11.61.15,17.05.77c1.6.15,2.39.56,2.59,2.22.24,3.17.24,6.33.24,9.55s0,6.46-.24,9.6c-.17,1.67-.97,2.08-2.59,2.22ZM35.43,121.94c0,5.54,4.4,10.15,10.08,10.15s10.08-4.59,10.08-10.15-4.4-10.08-10.08-10.08-10.08,4.59-10.08,10.08h0Z"/>
    </g>
  </g>
</svg>