<?xml version="1.0" encoding="UTF-8"?>
<svg id="Logos" xmlns="http://www.w3.org/2000/svg" viewBox="0 0 250 250">
  <defs>
    <style>
      .cls-1 {
        fill: #e0001b;
      }
    </style>
  </defs>
  <g id="CNN_Brasil" data-name="CNN Brasil">
    <g>
      <g>
        <path class="cls-1" d="M45.22,107.47c0-11.44,9.28-20.71,20.72-20.71h15.72v-11.74h-15.85c-17.9,0-32.45,14.56-32.45,32.45s14.56,32.45,32.45,32.45h30.51c1.71,0,3.08-1.68,3.08-3.07v-60.11c0-3.31,2.08-6.11,5.17-6.95,2.64-.72,6.34.01,8.81,4.21.11.19,7.61,13.12,19.04,32.81,8.97,15.46,18.24,31.45,18.41,31.73.96,1.63,2.28,2.4,3.53,2.06.79-.21,1.71-.98,1.71-2.42v-61.45c0-3.32,2.07-6.11,5.15-6.95,2.62-.71,6.3.02,8.77,4.21.11.18,6.74,11.61,17.64,30.41,9.64,16.62,19.61,33.82,19.8,34.14.96,1.63,2.28,2.4,3.53,2.06.79-.21,1.71-.98,1.71-2.42V58.59h-11.76v47.39s-19.65-33.85-20.56-35.39c-12.47-21.19-36.05-12.43-36.05,5.81v29.58s-19.65-33.85-20.56-35.39c-12.48-21.19-36.05-12.43-36.05,5.81v48.48c0,1.77-1.32,3.3-3.25,3.3h-18.51c-11.44,0-20.72-9.28-20.72-20.72Z"/>
        <path class="cls-1" d="M217.36,58.59v79.61c0,3.31-2.08,6.11-5.17,6.95-.57.15-1.19.24-1.83.24-2.35,0-5.04-1.16-6.98-4.45-.1-.18-7.91-13.64-19.82-34.16-8.59-14.8-17.46-30.1-17.63-30.38-.96-1.63-2.26-2.4-3.49-2.06-.78.21-1.69.98-1.69,2.43v61.45c0,3.31-2.08,6.11-5.17,6.95-2.64.72-6.34-.01-8.81-4.21-.1-.17-7.36-12.69-18.42-31.76-9.27-15.97-18.85-32.49-19.02-32.78-.96-1.63-2.28-2.4-3.53-2.06-.79.22-1.71.98-1.71,2.42v60.11c0,4.14-3.63,7.76-7.78,7.76h-30.51c-20.48,0-37.15-16.66-37.15-37.14s16.66-37.15,37.15-37.15h15.85v-11.73h-15.83c-27,0-48.88,21.88-48.88,48.88s21.89,48.88,48.88,48.88h30.81c11.71,0,19.24-6.85,19.23-19.51v-27.88s19.65,33.86,20.55,35.39c12.48,21.19,36.05,12.43,36.05-5.81v-29.58s19.65,33.86,20.55,35.39c12.48,21.19,36.05,12.43,36.05-5.81V58.59h-11.71Z"/>
      </g>
      <g>
        <path class="cls-1" d="M72.73,171.94c1.62,1.28,2.43,3.14,2.43,5.57,0,1.48-.35,2.76-1.05,3.85-.7,1.09-1.67,1.94-2.93,2.56v.04c3.54,1.12,5.32,3.53,5.32,7.24,0,1.84-.46,3.41-1.38,4.71-.92,1.3-2.17,2.28-3.75,2.95-1.58.67-3.36,1-5.34,1h-14.15v-29.85h13.69c3.15,0,5.54.64,7.16,1.93ZM58.32,175.12v6.74h6.49c1.28,0,2.26-.29,2.93-.86s1-1.42,1-2.53-.33-1.92-1-2.49-1.65-.86-2.93-.86h-6.49ZM58.32,186.97v7.79h7.41c1.42,0,2.5-.34,3.22-1.03.73-.68,1.09-1.64,1.09-2.87s-.36-2.18-1.09-2.87c-.73-.68-1.8-1.03-3.22-1.03h-7.41Z"/>
        <path class="cls-1" d="M106.78,198.02c.13.67.31,1.28.57,1.84h-6.62c-.28-.81-.53-2.09-.75-3.85l-.5-3.81c-.17-1.31-.59-2.25-1.26-2.83-.67-.57-1.73-.86-3.18-.86h-6.49v11.35h-6.57v-29.85h13.69c3.57,0,6.22.73,7.93,2.2,1.72,1.47,2.57,3.54,2.57,6.22,0,1.76-.38,3.26-1.13,4.52-.75,1.26-1.88,2.21-3.39,2.85,1.31.45,2.29,1.13,2.93,2.05.64.92,1.06,2.12,1.26,3.6l.5,3.68c.17,1.26.31,2.22.44,2.89ZM99.6,179.26c0-2.76-1.62-4.15-4.86-4.15h-6.2v8.29h6.2c3.24,0,4.86-1.38,4.86-4.15Z"/>
        <path class="cls-1" d="M131.66,193.16h-11.14l-2.09,6.7h-7.04l9.88-29.85h9.55l10.09,29.85h-7.08l-2.18-6.7ZM125.88,174.74l-3.94,13.31h8.37l-4.15-13.31h-.29Z"/>
        <path class="cls-1" d="M161.61,170.22c1.72.7,3.07,1.71,4.06,3.04.99,1.33,1.49,2.9,1.49,4.71h-6.57c-.14-1.15-.64-2.02-1.49-2.62-.85-.6-2.06-.9-3.62-.9s-2.75.33-3.64.98c-.89.66-1.34,1.5-1.34,2.53,0,.84.24,1.51.73,2.01.49.5,1.15.84,1.99,1l7.62,1.63c4.91,1.06,7.37,3.85,7.37,8.37,0,1.93-.48,3.6-1.44,5.02-.96,1.42-2.33,2.53-4.1,3.31-1.77.78-3.85,1.17-6.22,1.17-3.85,0-6.92-.83-9.21-2.49-2.29-1.66-3.43-3.97-3.43-6.93v-.33h6.57v.25c0,1.26.49,2.28,1.49,3.06.99.78,2.46,1.17,4.42,1.17,1.84,0,3.21-.33,4.1-1s1.34-1.55,1.34-2.64c0-.98-.31-1.74-.92-2.3-.61-.56-1.67-1-3.18-1.34l-6.45-1.38c-4.77-1-7.16-3.73-7.16-8.16,0-1.95.52-3.63,1.55-5.02s2.44-2.44,4.23-3.14,3.8-1.05,6.03-1.05,4.08.35,5.8,1.05Z"/>
        <path class="cls-1" d="M180.96,199.86h-6.66v-29.85h6.66v29.85Z"/>
        <path class="cls-1" d="M195.31,194.42h14.07v5.44h-20.73v-29.85h6.66v24.41Z"/>
      </g>
    </g>
  </g>
</svg>