<?xml version="1.0" encoding="UTF-8"?>
<svg id="Logos" xmlns="http://www.w3.org/2000/svg" viewBox="0 0 250 250">
  <defs>
    <style>
      .cls-1 {
        fill-rule: evenodd;
      }

      .cls-1, .cls-2 {
        fill: #005395;
      }
    </style>
  </defs>
  <g id="Universal">
    <g id="g8">
      <g id="g12424">
        <path id="path1072" class="cls-2" d="M124.59,185.34c-27.8,0-51.31-18.32-59.13-43.55-.02-.12.02-.24.15-.27.12-.02.24.02.27.15,8.18,22.93,31.37,39.45,58.71,39.45s50.53-16.53,58.71-39.45c.02-.12.15-.17.28-.15.12.02.17.15.15.27-7.82,25.23-31.33,43.55-59.13,43.55"/>
        <path id="path1102" class="cls-2" d="M96.8,90.9s-.17-.19-.22-.22c-.17-.12-.25-.11-.39-.08-.15.03-.17.08-.28.11-.12.03-.25.03-.37,0-.25-.08-.41-.39-.6-.61-.05.06-.15.18-.15.18-.67-.29-1.35-.42-2.08-.2-.07.02-.19-.07-.28-.09-.27.53-.83.62-1.32.72-.22.04-.44.15-.66.27-.12.09-.24.35-.37.45-.12.11-.26.06-.37.18-.37.4-.63.87-.64,1.3,0,.33-.12.6-.47.76-.15.07-.31.21-.38.36-.38.74-.76,1.49-1.07,2.28-.12.32-.17.76-.34,1.05-.27.49-.15.93-.05,1.41.1.5.38,1.63.38,1.63-1.56.03-4.02.12-5.98.21-.02-.25-.51-1.04-.6-1.18-.1-.14-.34-.88.15-1.4.17-.2.71-.98.71-1.49.02-1.25-.5-2.63-.62-3.65.62-.89-.02-1.79.02-2.7,0-.03-.12-.14-.17-.2.64-.81.87-2.15.43-2.4-1.44,1.78-.6,4.15-1.48,6.1-.07.27-.19.52.07.81.25.26-.19,1.3-.36,1.13.24-.49-.44-.92-.76-1.37-.1-.13,0-.28,0-.42.56-.57.83-1.16.29-1.9-.15-.21-.1-.54-.15-.81.64-.25.99-.7.84-1.27-.15-.58.02-1.1.24-1.61.27-.64.55-1.27.83-1.92.17-.42.29-.82,0-1.19-.05-.06-.07-.17-.05-.21.34-.92.79-1.78,1.33-2.62.34-.64.74-1.24,1.18-1.81-6.07,5.03-11.05,11.12-14.61,17.96-.05.08-.12.12-.19.12-.12,0-.22-.1-.22-.22l.02-.09c4.83-10.78,12.59-19.92,22.45-26.45,10.11-6.69,21.9-10.23,34.08-10.23s23.96,3.54,34.08,10.23c9.87,6.53,17.63,15.67,22.45,26.45l.02.09c0,.12-.1.22-.22.22-.07,0-.15-.04-.19-.11-.77-1.51-1.63-2.96-2.54-4.38-.43-.33-.85-.64-1.09-1.18-.19-.45-.99-.59-1.34-.99-.36-.4-.8-.78-1.04-1.25-.49-.98-1.32-1.53-2.28-2.04-.96-.64-1.73-1.57-2.74-2.23-.1-.05-.17.09-.24.18.15.7.69,1.3,1.34,1.74.62.56,1,1.32,1.82,1.72.76.46,1.37,1.17,2.03,1.77l-.02.04-.12.16c-.19-.15-.4-.29-.6-.44l-.05.03c.1.22.12.52.28.61.49.33.57.84.51,1.22,0,.06-.02.11-.02.16-.02.07-.02.14-.02.21v.03c0,.05,0,.09,0,.15,0,.27.05.52.12.76.02.14.05.27.1.42-.46-.31-.93-.59-1.38-.92-.1-.08-.1-.28-.15-.44h0s0-.07,0-.07c.19-.31.7-.11,1.12-.18-.42-1.59-1.85-2.23-3.05-3.22-.56-.46-1.07-.96-1.56-1.48-.39-.42-.8-.89-1.37-1.03-.12.15-.24.27-.33.46-.1.19-.05.69-.25.64-.46-.09-1.12-.46-1.53-.15-.1.22,0,.65.22.82.57.47.22.93-.22,1.29-.32.3-.3.82-.3,1.22,0,.16-.02.41.05.48.65.42.3,1.06.41,1.61,0,.45-.05,1.14-.58,1.2-1.42.12-1.97,1.39-2.21,1.03-.39-.35-.52-.46-.77-.71-.32-.32-.59-.47-1.05-.14-.22.16-.61.13-.94.18-.1-.31-.15-.58-.24-.8-.12-.3-.15-.63-.62-.7-.15-.02-.37-.06-.34-.49.12-1.41-.47-2.48-1.3-3.57-.07-.11-.39-.22-.41-.36-.07-.34.27-.13.5-.29.22-.15-.02-.44.78-.38,1.24.09,2.49-.15,3.89-.27-.76-1.12-.88-1.97-1.15-2.27-.22-.27-1.03-.78-1.7-1.13-.17-.09-.41-.12-.62-.11-.51.02-.93-.09-1.23-.54.44-.67,1.19-.09,1.79-.39-.22-.23-.64-.54-.65-.72.28-.13.78.14,1.07.2.17-.28.33-.49.49-.76-.07-.14-.36-.45-.3-.56.66-.68.73-.4.41-1.31.12-.09.28.27.46.46.05-.23.41-.46-.34-.89-.05-.04.17-.13.3-.22.1-.07,0-.18.1-.22.24-.09.55-.05.63-.14-.64-.52-1.14-1.06-1.77-1.53-.46-.31-.68-.66-.37-1.01.35.2.71.38,1.06.58.22.24.05.51.46.65.1-.07.61-.1.64-.21.05-.12-.34-.36-.39-.45-.19-.33-1.07-1-1.37-1.01-.38-.02-1.03-.46-1.31-.73.1.09-.17.2-.17.28-.22.88-1.26.54-1.6-.04-.07-.11-.32-.03-.4-.13-.59-.67-.57-.52-1.29-.92-.05-.04-.02-.16-.05-.36-.05-.52-.74-.81-.74-.94,0-.14.57-.06.64-.94-3.49-1.87-7.17-3.42-10.96-4.62-.5.07-.99.18-1.4.37-.7.37-1.56.33-2.35.18-.39-.07-.55.09-.72.41-.15.27-.54.28-.78.51l.17.36c-.19.36-.44.58-.7,1.05-.74-.28-1.37-.64-2.13-.77-.84-.14-1.5-.5-2.05-1.12-.59-.65-1.45-1.13-1.97-1.85-.15-.2-.17-.52-.12-.74.05-.17.28-.27.52-.33.15-.02.33.05.47.04.15-.02.52-.42.68-.49-1.88-.27-3.78-.46-5.68-.58.49.12.84.38,1.07.83-.26,0-.49-.03-.71-.04l-.02.1c1.24.54,3.11,1.2,3.53,1.61.02.11-.41.22-1.4.51-.24.05-.6-.44-2.07-.96-.05-.02-.25.11-.24.12.05.16.12.33.25.43.47.31.98.6,1.54.93-.31.23-.92.05-.63.7-.7-.39-1.32-.72-1.94-1.06l-.05.07c.34.28.68.55,1.02.82-.02.05-.05.09-.1.15-1.07-.21-2.09-.64-3.13-1-.12-.05-.4-.41-.5-.52,0,0-.98-.54-1.44-.68-.46-.14-1.04-.22-1.62-.2s-.71-.2-.71-.2c0,0,.19-.36.48-.39.28,0,1.03.2,1.48.22.46.05,1.12.11,1.12.11-.05-.2-.07-.27-.1-.4.49-.06.98-.13,1.51-.2-.12-.27-.02-.71-.57-.33-.1.07-.35-.07-.64-.12.17-.11.25-.15.33-.21-.17-.03-.38-.04-.52-.11-.17-.09-.3-.2-.43-.33-1.96.02-3.91.11-5.85.29.25.64,1.06.67,1.47,1.34-.65-.09-1.3-.27-1.94-.34-.36,0-.83.22-1.17.19-.24-.03-.4-.58-.43-.56.28-.27.81-.4,1.36-.56-1.26.13-2.52.3-3.76.49-3.71.76-4.8,1.85-5.32,2.39,0,0,.66.36.88.5-.17.28-.31.53-.43.73.57.18,2.1.68,2.53.96.75,1.18,2.21,1.1,3.42,1.5-.27.38-.33.78-.56,1.13-.05.08-.05.23,0,.33.15.31.17.53.36.84.05.07.17.18.25.17,1.71-.04,1.6-.56,1.85-1.92.83-.11,2.89-.04,3.11-1.04.02-.56-.57-1.07-1-1.21.02-.05.07-.12.1-.18.32-.02,1.12-.33,1.23-.45-.15-.2.05-.22-.22-.54.29-.06.44-.06.51-.26.02-.05,0-.19-.02-.27-.02-.05,0-.11.02-.15.05-.05.1-.09.19-.08.86.09,1.75.23,2.6.44.39.11.86.3,1.07.6.44.63,1.05.6,1.6.82-.52.56-.19,1.12.34,1.48,1.18.85,2.42.24,3.48-.34.37.55,1.41,1.5,1.82,2,0,0-.12.33.37,1.16.52.85,1.93,1.23,2.91,1.65-.3.32-.15.44,1.26,1.1-.02.23,0,.47-.17.61-.24.22-.61.32-.85.38-.37.11-.72.03-1.01-.02-.43-.07-.85-.09-1.27.07-.84.33-1.63.23-2.47,0-1.26-.36-2.53-.67-3.81-.96-.52-.13-1.06-.15-1.55.24-.15.12-.49.07-.75.11-.66.1-2.34.7-2.91,1,1.51-.37,3.06-.74,4.95-.67.32.02.62.09,1.05.33.12.07.26.22.22.35-.02.09-.24.21-.36.21-.42.03-.84.02-1.26.02,0,.05-.02.09-.02.14.39.04.76.09,1.25.15-.28.15-.51.26-.75.39.19.89.92,1.25,1.83,1.43.28.05.71.22,1.01.33.5-.26.97-.51,1.44-.77.12-.07.28-.02.15.15-.28.28-.05.27-.12.4.12.11.28.24.41.36.05.04.05.09-.02.13-.61-.09-.59.16-1.33.05-.05.08.19.22-.19.2-1.37,0-2.76-.22-4.09.25-.28.1-.59.17-.78-.16-.07-.11-.19-.27-.17-.35.05-.14.22-.27.35-.3.46-.1.93-.15,1.41-.35-.02-.28-1-.13-1.86-.14-.35.27-1.57.23-2.34.16-.94-.12-2.12.24-2.59.95-.07.12.02.32.15.4.12.11.56.15.53.3-2.02.02-2.56-.44-3.66-.33,0,.03.15.08.1.19.15.03.3.05.44.1.12.04.42.06.63.09.05.03.05.06,0,.09-.31,0-.78.03-.9,0-.28-.09-.54,0-.74,0-.22.29-.58.29-.76.47-.19.15-.38.76-.71.7,0-.3-.32-.38-.43-.52-.05.03-.12.06-.17.09.34,1.07-.77,1.01-1.07,1.63-.12.09-.1-.09-.15-.11.12-.15.12-.27.19-.35-.17-.21,0-.67,0-.97-.05-.09-.22-.06-.27.11-.15.5-.34.9-.24,1.42.28.56,0,1.12-.62,1.27-.17.05-.5,0-.41.35,0,0-.24.12-.39.12-.82,0-1.21.13-1.62.49-1.15-.11-1.92.76-2.95,1-.55.13-1.09.56-1.43.99-.7,1.07-.17,2.58-.39,3.78-.1.54-.68,1.14-.73,1.56,0,0-.1,0-.17.02-.17,0-.63.16-.78-.04.19-.38-.3-1.05-.45-1.62-.15-.54-.15-1.26.1-1.78.15-.3.15-.37-.15-.63-.07-.06-.12-.15-.15-.21-.19-.54-.39-.7-.99-.45-.28.14-.52.09-.72-.25-.15-.24-.55-.39-.86-.53-.35-.14-.8.21-1.15-.25-.12-.15-1.13.14-1.49.17-.05.03.12.33-.1.46-.05.04-.15.07-.12.15,0,.03.12.23.07.28-.1.09-.15.09-.15.09h-.1ZM164.56,79.92c.34-.65-.42-1-.89-1.31-.15-.09-.38-.03-.65-.06.15.21.19.32.3.45-.12.05-.24.09-.35.14.05.15.07.29.15.52-.33-.09-.55-.15-.78-.21l-.05.09c.33.16.65.32,1.02.49.15-.39.36-.51.72-.11.07.09.51.07.54,0"/>
        <path id="path1148" class="cls-1" d="M124.41,66.17c.15.7-1.01.32-1.46.27.49-.54,1.01-.25,1.46-.27"/>
        <path id="path1154" class="cls-2" d="M135.82,79.54c-1.06.15-1.02.55-1.14.82.37.05.96-.07,1.3-.03l.05.12c-.07.03-.12.07-.3.15.83.27,1.56.49,2.33.71-.07.22-.38.52-.45.7.42.24.76.1.79.17.05.07-.48.3-.68.44l.05.09c.22-.07.7-.27.77-.22.19.15-.24.2-.34.48.24-.03.47-.12.59-.15.05.07-.05.13.07.22-.39.73-.35.74-.82.38-.05-.04.17-.2-.02-.32-.07-.04-.12.12-.29.19-.12-.05-.24-.08-.39-.11.05-.15.38-.28.17-.5-.65.1-1.33.16-1.92.14-.15-.03-.1-.14,0-.16.35,0,.87-.09.84-.14-.8-.24-1.47-.39-2.2-.62-.69-.22-1.85-.05-2.12-.52-.24-.43.85-1.24,2.01-1.88.25-.15.93-.28,1.61-.31.07.03-.07.27.1.33"/>
        <path id="path1200" class="cls-1" d="M169.42,88.99c.24.65.64,1.04.63,1.42-.54-.27-.83-.57-.82-.93,0-.15.19-.15.19-.49"/>
        <path id="path1206" class="cls-2" d="M126.92,80.72c.1-.03.24-.21.33-.28.34.81,1.21.5,1.8.89-.3.07-.57.14-.84.21-.73-.32-.8-.37-1.29-.82"/>
        <path id="path1236" class="cls-2" d="M127.61,78.6c.71-.13,1.59.27,2.24.9l-.07.15c-.99-.27-1.7-.74-2.16-1.06"/>
        <path id="path1266" class="cls-2" d="M152,82.25c.1-.29.05-.6-.05-.74-.33-.2-.29-.21-.62-.4.02-.05-.05-.27-.05-.33.28-.14.35-.23.54-.39.29-.37-.12-.4-.05-.51.35-.45.83-.71,1.29-.82.22.2.44.39.72.64,0,.02-.07.2-.12.28.29.27.75.59.9,1.37-.73.64-1.37,1.24-1.79,1.48-.22.14-.53.13-.69.02-.1-.09-.19-.24-.1-.6"/>
        <path id="path1296" class="cls-2" d="M153.96,79.28c-.05-.14-.07-.26-.12-.39-.15.04-.19-.04-.47.05.15-.26.17-.27.26-.4l-.15.08c-.12-.17-.19-.38-.34-.51-.19-.18-.46-.29-.61-.38.17-.31.34-.58.52-.87.26,0,.61,0,1.06,0-.39.6-.19.75.4.65.52-.08.83.11.8.67-.02.17.02.35.02.4,1.17.85,2.58,1.27,3.33,2.52.52-.49,1.36-.09,1.12,1.16.15.05.29.12.44.19,0,.06,0,.12,0,.13-.22.39-2.01.33-2.75.64-.39.16-.15-.48-1.31.09.52-1.13.75-.8,1.03-1.04-.39-.08-.83-.18-1.42-.32.42-.23.78-.78.17-.82-.1,0-.1-.22-.17-.38h.65s.07-.09.12-.12c-.29-.49-.48-.64-.93-1.03-.42-.02-1.2.5-1.09-.6-.24.11-.4.18-.57.27v.02s-.02-.02-.02-.02"/>
        <path id="path1326" class="cls-2" d="M170.76,92.85c-.15-.83-.64-1.1-.91-1.67-.05-.1.17-.31.29-.51.56.59.99,1.37,1.05,1.81.02.27-.15.04-.28.42-.05-.02-.15-.02-.15-.06"/>
        <path id="path1356" class="cls-2" d="M121.78,161.31c0-.22-.46-.1-.76-.05-.1,0,.26.19-.91.94.17,0,.99.02.71.15-.94.75-1.86,1.25-2.88,1.87-.1.05-.25.07-.33.05-.5-.33-1.13,0-1.63-.67-.19-.28-.52-.24-.64-.33-.05-.02-.27-.52-.34-.47-.02.02-.26.15-.24.22.02.1.17.28.17.28.24.27.63.56.83.82.02.05-.02.27-.15.47-.05.1-.05.34.07.57.05.12.29.07.26.29-.07.45-.93,1.07-1.44,1.05-.64,0-1.29-.07-1.92-.15-.54-.07-1.01.33-.86.87.1.31-.02.4-.24.39-.58-.05-1.12-.17-1.64-.48-.07.89,0,.99.75,1.12.12.02.22.28.38.46-.52.17-1.23.05-1.08.75.05.17-.07.38-.12.56-.31.12-.9.12-1.01.33-.15.74.63.64,1.16.99.02.22.02.43-.02.52-.17.19-.6.49-.81.64.02.25.05.44-.05.54-.15.02-.37.12-.52.15.1.49.42.81.54,1.01-.02.1-.39-.1-.63-.12l.77.51c.45.26.26.34.68.73.39.35.59.42.57.46-.02.07.07.45-1.13.05-1.43-.46-1.8-.64-3.49-2.28,0,0-.9-.81-1.51-2.51-.05-.12-.19-.28-.12-.38.05-.07.15-.1.34-.07-.02-.17.02-.44-.07-.51-.15-.12-.64.15-.67-.19.19-.51.28-.39.37-.88.02-.15-.15-.32-.15-1.03,0-.12.19-.17.28-.1.15.31.27.74.48.93-.24-1.48-.05-1.05-.19-2.13-.17-.22-.24-.1-.3-.1v1.06c-.43-.05-.58-.19-.49-.85.02-.1.17-.02,0-.34-.15-.27-.1-.68-.1-.9.28-.76.02-1.47-.29-2.12-.42-.81,0-.56.1-.89.43-1.41,1.1-2.79.7-4.36-.12-.45-.36-.96.07-1.42.05-.05.02-.19,0-.28-.26-.75.1-1.42.26-2.12.1-.47.15-.96.19-1.44.1-.79.19-1.6.12-2.39.02-.56-.02-.83.05-1.25.05-.37.34-.72.35-1.1.02-.86-.05-1.72-.1-2.58,0-.15-.05-.34-.15-.45-1.06-1.27-2.11-2.52-3.55-3.37-1.03-.61-1.5-1.66-2.06-2.91-.1-.19-.19-.47-.33-.76,8.68-.27,17.34-.43,25.99-.42,6.5,0,14.07.04,20.58.2-.05.89-.1,1.92-.1,2.1-.1,1.24-.31,1.3-.85,2.44-.46.9-1.24,1.3-1.92,1.82-1.06.81-2.29,1.36-3.25,2.29-.34.28-.65.7-1.04.82-1.62.42-1.38,1.96-1.97,3.13-.55,1.25-1.26,1.79-2.01,3.07-.33.45-.94.72-1.41,1.06-.33.8-1.06,1.09-1.71,1.51-.59.17-1.24-.22-1.85-.28-.57-.1-1.29.31-1.49.73-1.16-.19-1.87.32-2.85.76-.75.32-.93.99-.91,1.66.02.52-.19.81-.56,1.01-.76.42-1.31,1.03-1.92,1.66-.26.27-.46.29-.5.29,0,0-.19.02.5-.61h-.01ZM121.28,161.92h0"/>
        <path id="path1386" class="cls-2" d="M214.34,136.63c-.72-1.9-1.45-3.78-2.18-5.66-4-.33-8.01-.63-12.01-.91l-2.19,5.33c-2.43-.16-4.86-.33-7.29-.46,4.15-9.43,8.29-18.85,12.43-28.22,1.01.08,2.03.15,3.05.22,1.02.08,2.03.15,3.06.23,4.14,10.01,8.28,20.05,12.42,30.1-2.42-.22-4.85-.42-7.28-.63h0ZM202.56,124.17c2.39.18,4.79.36,7.19.55-1.2-3.1-2.39-6.19-3.6-9.29-1.19,2.92-2.39,5.83-3.59,8.74"/>
        <path id="path1416" class="cls-2" d="M91.7,133.52c-3.98-9.57-7.97-19.09-11.95-28.6,2.54-.11,5.09-.21,7.63-.31,2.3,5.99,4.6,11.99,6.9,17.98,2.3-6.13,4.6-12.26,6.9-18.38,2.55-.06,5.09-.11,7.64-.16-3.99,9.75-7.98,19.52-11.96,29.31-.86.03-1.73.04-2.58.07-.86.03-1.72.06-2.58.09"/>
        <path id="path1446" class="cls-2" d="M15.78,127.05c0,4.14,1.55,6.08,5.16,5.71,3.62-.36,5.17-2.59,5.17-6.73v-17.44c2.29-.22,4.59-.43,6.89-.63v17.55c0,8.07-4.03,12.67-12.06,13.46-8.02.8-12.04-3.01-12.04-11.08v-17.55c2.29-.25,4.59-.5,6.88-.73"/>
        <path id="path1476" class="cls-2" d="M179.47,116.03c4.48,1.85,10.61,4.1,10.61,10.08s-4.37,9.35-12.01,8.97c-4.51-.22-9.22-2.91-10.56-3.72-.05-.03-.1-.05-.15-.09v-6.87c.15.09.28.16.41.27,4.11,2.6,7.51,4.07,10.29,4.41,3.31.42,4.84-.57,4.84-2.55,0-.82-.69-1.64-2.17-2.37-.85-.43-1.87-.85-2.95-1.3-4.81-1.95-10.78-3.86-10.78-10.51,0-5.88,5.19-8.3,10.33-8.05,3.93.18,8.62,2.16,10.82,3.44.05.03.1.06.15.09v6.87c-.15-.09-.28-.17-.41-.27-1.36-.87-6.13-3.74-10.55-3.94-2.22-.1-3.19.7-3.19,1.74,0,.74.71,1.61,2.18,2.38.87.46,1.97.92,3.14,1.41"/>
        <path id="path1506" class="cls-2" d="M157.6,122.21c2.28,3.81,4.56,7.62,6.84,11.45-2.58-.09-5.16-.18-7.74-.25-2.02-3.51-4.04-7.01-6.06-10.5-1.57-.03-3.14-.07-4.71-.09v10.33c-2.26-.04-4.52-.07-6.77-.09v-29.05c5.19.05,10.37.16,15.56.3,5.4.15,8.47,3.84,8.47,9.39s-2.97,7.62-5.59,8.52h0ZM145.89,116.75c2.11.05,4.23.09,6.35.14,3.17.09,3.8-1.68,3.8-3.18s-.64-3.31-3.8-3.38c-2.11-.06-4.23-.1-6.35-.15"/>
        <path id="path1536" class="cls-2" d="M70.03,134.44c-.02-9.69-.02-19.36-.02-29.05,2.28-.13,4.58-.24,6.86-.33v29.04c-2.28.11-4.55.22-6.83.34"/>
        <path id="path1566" class="cls-2" d="M118.44,121.29v5.56c5.19-.04,10.38-.04,15.58,0v6.13c-7.43-.05-14.85-.03-22.27.07-.02-9.69-.02-19.36-.02-29.05,7.38-.09,14.76-.12,22.14-.07v6.1c-5.13-.03-10.27-.03-15.4,0v5.13c3.49-.03,6.97-.03,10.46-.03v6.14c-3.49,0-6.97,0-10.46,0"/>
        <path id="path1596" class="cls-2" d="M57.48,106.11c2.28-.14,4.55-.27,6.83-.4v29.05c-1.86.1-3.72.21-5.58.33l-.07-.11c-4.38-5.55-8.76-11.07-13.13-16.57v17.6c-2.28.17-4.55.35-6.83.53v-29.05c2.21-.17,4.41-.35,6.62-.52l.07.09c4.03,5.05,8.05,10.13,12.09,15.22"/>
        <path id="path1626" class="cls-2" d="M224.51,108.47c2.28.21,4.54.43,6.82.65v22.96c3.91.39,7.81.79,11.71,1.23v6.09c-6.16-.68-12.32-1.31-18.5-1.88,0-9.68-.02-19.36-.02-29.05"/>
      </g>
    </g>
  </g>
</svg>