<?xml version="1.0" encoding="UTF-8"?>
<svg id="Logos" xmlns="http://www.w3.org/2000/svg" viewBox="0 0 250 250">
  <g id="Canal_do_Artesanato" data-name="Canal do Artesanato">
    <g>
      <path d="M11,119.89c.46-10.23,6.37-27.9,19.53-25.9,2.09.32,3.1,1.27,3.93,3.17.05.04.69-.45.85-.53,1.84-1.01,3.9-.62,4.42,1.59.16.66.07,1.12-.07,1.77-.63,2.81-1.73,5.78-2.49,8.6-.57,2.12-1.06,4.26-1.59,6.38-.93,1.94-3.82,1.68-4.91,0s-.13-2.87.38-4.54c.73-2.41,1.12-5.88.03-8.21-.96-2.06-2.5-1.67-4.28-.9-6.88,2.96-9.11,15.22-8.79,21.86.25,5.12,2.59,10.18,8.06,11.22s8.95-1.21,11.89-5.49c.52-.77,1.48-2.26,1.77-3.11.33-.98.39-2.72.66-3.86,1.97-8.56,9.4-19.99,19.28-12.9.19.13.92.79,1.01.82.05.02.11.02.16,0,.69-1.66,3.13-1.27,4.37-.44,1.07.72,1.56,1.63,1.34,2.93-.24,1.41-.82,2.99-1.18,4.4-.88,3.46-1.9,7.2-2.33,10.73-.34,2.75-.79,8.99,3.72,7.67,2.77-.81,5.04-5.14,6.06-7.64.45-4.51.33-9.07.67-13.59.15-1.98,1.53-3.87,3.7-3.63,1.32.15,2.8,1.82,2.8,3.13v1.94c2.84-3.77,6.86-7.95,12.1-6.47,5.79,1.63,5.64,9.09,5.42,13.92-.15,3.3-1.27,7.25-.99,10.45.1,1.13.85,1.08,1.75.75,2.84-1.05,5.28-6.42,5.91-9.2.17-.76.26-1.55.43-2.32,1.19-5.21,4.58-12.58,9.79-14.79,3.91-1.66,7.71-.35,10.7,2.36.59-1.61,2.93-1.41,4.15-.69,2.84,1.65,1.24,4.32.62,6.8-.73,2.91-1.55,5.91-2.09,8.85s-2.05,12.56,3.74,10.09c1.59-.68,3.12-2.67,3.99-4.13.34-.58,1.31-2.29,1.29-2.88-.02-.55-.19-1.2-.22-1.76-.18-3.56.08-7.61.51-11.15.85-7.17,3.56-20.85,12-22.67,2.28-.49,6.02-.25,7.41,1.92,2.62,4.1,0,12.71-1.63,16.98-2.59,6.79-6.39,13.24-10.83,18.98-.16.38.54,1.93.78,2.32,1.23,1.96,3.18,2.02,5.19,1.24,3.25-1.26,6.36-4.86,8.07-7.82.29-.5.59-1.47,1.07-1.76,1.11-.65,3.62-.18,4.21,1.05.46.96.11,1.46-.26,2.33-3.41,8.06-14.67,17.89-22.73,9.55l-1.59-2.4c-.51.96-1.28,1.94-2.01,2.75-2.4,2.65-5.22,4.73-9.01,3.85-3.37-.78-5.78-3.77-6.39-7.1l-2.15,2.23c-1.92,1.56-4.04,3.09-6.61,3.08-3.06-.02-5.35-1.31-6.9-3.91-.12-.21-.21-.46-.33-.66-.02-.04-.01-.14-.12-.09-.09.04-.99,1.36-1.17,1.59-2.31,2.83-5.35,5.06-9.2,3.97-7.64-2.16-4.14-13.24-3.59-18.79.15-1.52.41-4.95-1.15-5.77-3.27-1.71-6.23,3.67-7.32,5.99-2.03,4.36-3.47,9.82-4.04,14.6-.15,1.26.21,1.86-.93,2.75-1.48,1.16-4.34,1.34-5.31-.55-.14-.28-.18-.51-.27-.79-.02-.08.05-.13-.11-.1-1.32,1.32-2.72,2.67-4.52,3.32-4.15,1.49-8.52-.96-10.05-4.92-.24-.63-.36-1.3-.62-1.92-1.37,1.65-3,3.17-4.91,4.2-.54.29-1.82.96-2.38,1.01-1.47.15-3.25.04-4.64-.5-2.15-.84-3.48-2.75-4.4-4.78-2.56,3.27-6.15,5.72-10.27,6.54-11.87,2.38-18.81-6.73-19.37-17.63-.05-1.05-.05-2.34,0-3.39ZM142.36,121.8c1.21-1.66,2.27-3.47,3.22-5.29,1.99-3.86,5.35-11.05,5.62-15.29.07-1.06,0-2.96-1.59-2.01-2.26,1.34-4.34,8.38-5.03,10.93s-1.3,5.33-1.76,7.98c-.21,1.22-.47,2.45-.45,3.68ZM54.02,113.91c-5.07.39-7.56,9.04-7.76,13.21-.07,1.46-.1,4.14.96,5.26.78.84,2.77.37,3.66-.16,4.04-2.38,5.63-10.36,6.54-14.64.14-.67.23-1.36.36-2.04l-.04-.1c-1.1-.85-2.26-1.64-3.73-1.53ZM118.46,113.91c-4.68.29-7.11,7.67-7.61,11.53-.22,1.75-.65,6.08,1.05,7.19.55.36,2.01.18,2.63-.05,4.72-1.72,6.25-10.73,7.26-14.98l.35-2.05c-.02-.2-1-.83-1.22-.97-.8-.46-1.53-.73-2.46-.67Z"/>
      <path d="M207.16,92.01c22.98,1.02,38.99,23.74,32.33,45.81-1.93,6.4-7.4,15.73-12.76,19.79-6.11,4.63-15.07,5.76-22.57,5.48-18.69-.69-33.63-15.92-34.16-34.55s14.63-35.71,33.92-36.53c1.02-.04,2.23-.05,3.25,0ZM204.39,97.96c-14.19.59-26.12,11.22-28.1,25.3-3.05,21.76,17.87,39.49,38.82,32,14.65-5.23,22.77-20.29,18.75-35.47-1.58-5.99-6-13.73-11.07-17.39s-12.28-4.7-18.41-4.44ZM232.91,140.29c.42-.02.85,0,1.27,0,.85,0,1.99.93,2.35,1.67.04.09.27.87.37.8,4.44-9.44,4.61-20.72.04-30.14-.52,1.71-2.45,2.77-4.13,1.98,2,4.77,3.06,10.02,2.68,15.21-.26,3.61-1.22,7.16-2.68,10.45-.02.22.07.04.1.03Z"/>
      <path d="M162.69,151.97c0,3.75-3.04,6.79-6.79,6.79s-6.79-3.04-6.79-6.79,3.04-6.79,6.79-6.79,6.79,3.04,6.79,6.79ZM159.75,151.91c0-2.13-1.73-3.85-3.86-3.85s-3.86,1.73-3.86,3.85,1.73,3.85,3.86,3.85,3.86-1.73,3.86-3.85Z"/>
      <path d="M48.81,157.06c-.19,1.72-2.43,1.91-2.88.27l-.02-10.65c.04-.66.53-1.18,1.17-1.3,1.83.13,3.91-.18,5.71.02,3.4.38,5.17,4.7,3.05,7.39-.36.46-.89.78-1.23,1.23l2.25,2.42c.65,1.3-.74,2.53-1.99,1.92l-3.61-3.8h-2.44c-.06.8.09,1.72,0,2.51ZM48.88,151.73h3.57c.89,0,1.56-1.04,1.52-1.87-.02-.48-.55-1.29-1-1.48-.06-.03-.63-.18-.67-.18h-3.43v3.53Z"/>
      <path d="M119.89,153.28v-6.53s.15-.45.18-.52c.59-1.18,2.54-.87,2.7.47l.02,10.57c-.16,1.14-1.31,1.64-2.3,1.1l-6-7.2-.46-.42v6.74c0,.08-.25.51-.32.6-.74.84-2.3.46-2.49-.68l-.02-10.71c.13-1.17,1.6-1.64,2.44-.89l6.25,7.49Z"/>
      <path d="M80.71,155.61c.28.05.74.43.87.68.45.87.01,1.92-.95,2.13h-7.97c-.69-.15-1.05-.6-1.1-1.3-.25-3.39.2-7.1,0-10.52.04-.67.57-1.2,1.24-1.24l7.96.03c1,.3,1.34,1.62.63,2.38-.1.11-.55.41-.67.41h-6.32v2.26h5.26c.62,0,1.24.85,1.24,1.45s-.62,1.45-1.24,1.45h-5.26v2.26h6.32Z"/>
      <path d="M88.29,145.19c1.33-.12,3.52.06,4.66.81,1.04.68.91,2.25-.32,2.61-.78.23-1.36-.25-2.12-.38-.68-.12-2.2-.29-2.8,0-.43.21-.72.72-.51,1.19.23.52,3.11.92,3.79,1.15,5.14,1.74,3.74,7.71-1.25,8.1-1.73.13-4.2-.23-5.48-1.51-1.17-1.19.15-3.16,1.93-2.14,1.29.73,1.91.94,3.47.69.91-.15,1.91-.67,1.58-1.78-.22-.75-3.15-1.1-3.86-1.3-2.18-.6-3.78-2.25-3.13-4.65.46-1.71,2.37-2.61,4.02-2.76Z"/>
      <path d="M40.53,156.33h-6.65c-.45.66-.79,2.05-1.71,2.17s-1.84-.61-1.72-1.58c.04-.3.31-.75.45-1.03,1.63-3.31,3.48-6.53,5.14-9.83.67-.93,2.01-.82,2.56.17l5.38,10.37c.24,1.24-1.02,2.4-2.21,1.71-.58-.34-.85-1.42-1.23-1.98ZM39.27,153.64l-2.01-3.88-2.01,3.88h4.03Z"/>
      <path d="M128.1,156.33c-.55,1.03-.96,2.61-2.48,2.07-.72-.25-1.05-.92-.89-1.66l5.49-10.61c.76-.99,1.94-.94,2.62.12,1.66,2.62,2.83,5.92,4.47,8.59.41.97,1.35,2.03.6,3.07-.54.76-1.68.82-2.26.07-.21-.28-.77-1.58-.97-1.64h-6.58ZM133.53,153.64l-1.98-3.88-2.05,3.88h4.03Z"/>
      <path d="M99.2,156.33c-.56,1.1-1.04,2.73-2.63,2-.54-.25-.87-.8-.76-1.39,1.67-3.64,3.67-7.13,5.46-10.71.48-.88,1.62-1.08,2.36-.4,1.97,3.4,3.63,6.99,5.52,10.44.44,1.1-.26,2.39-1.53,2.23-1.1-.14-1.21-1.51-1.86-2.17h-6.58ZM104.63,153.64l-1.98-3.88-2.05,3.88h4.03Z"/>
      <path d="M65.48,148.2v9.07c0,.07-.17.46-.22.55-.54.87-2.02.84-2.49-.1-.03-.07-.18-.49-.18-.52v-9h-3.14c-.12,0-.61-.37-.7-.5-.7-.95-.16-2.24,1.05-2.33,2.83-.21,5.95.14,8.8.03,1.13.28,1.41,1.85.49,2.54-.05.04-.43.25-.45.25h-3.14Z"/>
      <path d="M138.51,148.2s-.4-.21-.45-.25c-1.01-.73-.6-2.45.66-2.58,2.81.19,5.93-.24,8.7,0,1.18.1,1.66,1.58.88,2.42-.1.11-.55.41-.67.41h-3.07v8.79s-.09.48-.1.53c-.34,1.07-1.91,1.26-2.54.35-.05-.07-.25-.48-.25-.52v-9.14h-3.14Z"/>
      <path d="M15.44,150.34c.42.19.9.23,1.38.42,2.55.98,3.3,4.08,1.57,6.19-1.53,1.85-4,1.18-6.11,1.25-.18-.06-.49-.5-.49-.71l.03-6.53c.08-.32.46-.58.79-.63.27-.04,2.71-.04,2.84.02ZM13.55,156.6h2.44s.71-.39.81-.46c.56-.43.97-1.26.92-1.97-.06-.97-1.24-2.08-2.23-2.08h-1.94v4.52Z"/>
      <path d="M28.67,154.41c0,2.25-1.83,4.08-4.09,4.08s-4.09-1.83-4.09-4.08,1.83-4.08,4.09-4.08,4.09,1.83,4.09,4.08ZM26.98,154.46c0-1.28-1.04-2.33-2.33-2.33s-2.33,1.04-2.33,2.33,1.04,2.33,2.33,2.33,2.33-1.04,2.33-2.33Z"/>
      <path d="M192.39,144.95v-34.8l30.1,17.4-30.1,17.4ZM194.44,113.47c-.06-.21.45-.73.39-.85l-1.45-.85v1.69h1.06ZM198.11,114.46l-1.53-.84-.51.73,1.53.96c.17.01.56-.79.52-.84ZM194.37,115.45h-.92v1.84h.92v-1.84ZM201.36,116.3l-1.58-.85-.45.74,1.64.96.39-.85ZM204.18,119.04l.43-.73-1.69-.95-.34.84,1.61.85ZM194.37,119.19h-.92v1.84h.92v-1.84ZM205.75,120.03l1.53.84.52-.73-1.58-.96-.46.84ZM208.99,121.87l1.59.92c.13-.27.63-.7.31-.95-.38-.29-1.03-.53-1.44-.82l-.46.85ZM194.37,122.86h-.92v1.84h.92v-1.84ZM214.29,123.85l-1.66-.92c-.06.26-.53.67-.32.88.07.07,1.37.81,1.45.81.26-.12.34-.54.53-.78ZM217.05,126.53l.43-.81-1.63-.93c-.06.17-.49.67-.39.82l1.59.92ZM193.45,126.6v1.84h.92v-1.84h-.92ZM219.1,128.44l1.48-.88-1.48-.88c-.49.78-.49.99,0,1.76ZM217.05,128.51l-1.59.92c-.09.13.3.67.39.82l1.63-.93-.42-.81ZM193.45,130.34v1.84h.92v-1.84h-.92ZM212.6,132.11l1.69-.95-.42-.71c-.07-.05-.14-.03-.21,0-.11.03-1.34.75-1.38.82-.14.21.34.59.32.85ZM210.68,132.25c-.18-.12-1.39.82-1.69.84l.42.82c.07.06.13,0,.19-.02.13-.05,1.37-.79,1.4-.86.09-.17-.33-.54-.33-.77ZM193.45,134.01v1.84h.92v-1.84h-.92ZM205.75,135.01c-.07.13.34.71.46.84l1.58-.96-.52-.73-1.52.85ZM204.18,136l-1.61.85.34.84,1.69-.95-.43-.73ZM193.45,137.82v1.76h.92v-1.76h-.92ZM201.36,138.66c.07-.1-.36-.82-.46-.84l-1.56.95.45.74,1.58-.85ZM198.11,140.58l-.47-.84-1.58.96c.11.16.31.74.51.72l1.53-.84ZM193.45,141.49v1.76l1.55-.95c-.21-.19-.36-.69-.63-.77l-.92-.04Z"/>
    </g>
  </g>
</svg>