<?xml version="1.0" encoding="UTF-8"?>
<svg id="Logos" xmlns="http://www.w3.org/2000/svg" viewBox="0 0 250 250">
  <g id="Desimpedidos">
    <g>
      <g>
        <g>
          <path d="M18.37,91.05c-.62,0-.93-.31-.93-.93v-29.16c0-.62.31-.93.93-.93h13.12c2.3,0,4.4.36,6.29,1.09,1.89.72,3.52,1.76,4.87,3.1,1.36,1.34,2.42,2.98,3.17,4.9.75,1.92,1.13,4.06,1.13,6.43s-.38,4.5-1.13,6.4c-.75,1.91-1.81,3.54-3.17,4.9-1.36,1.36-2.98,2.4-4.87,3.12-1.89.72-3.97,1.09-6.25,1.09h-13.16ZM31.18,81.96c.83,0,1.55-.19,2.17-.58.62-.38,1.13-.88,1.53-1.48s.7-1.29.91-2.06c.21-.77.31-1.54.31-2.3s-.1-1.59-.31-2.37c-.21-.78-.51-1.48-.91-2.08s-.9-1.09-1.51-1.44c-.61-.35-1.31-.53-2.1-.53h-2.26c-.41,0-.71.12-.89.35-.18.24-.27.56-.27.97v10.15c0,.92.38,1.37,1.15,1.37h2.17Z"/>
          <path d="M49.88,91.05c-.62,0-.93-.31-.93-.93v-29.16c0-.62.31-.93.93-.93h20.03c.62,0,.93.31.93.93v7.22c0,.62-.31.93-.93.93h-9.62c-.62,0-.93.31-.93.93v.49c0,.62.31.93.93.93h8.42c.62,0,.93.31.93.93v6.47c0,.62-.31.93-.93.93h-8.42c-.62,0-.93.31-.93.93v.31c0,.62.31.93.93.93h9.62c.62,0,.93.31.93.93v7.22c0,.62-.31.93-.93.93h-20.03Z"/>
          <path d="M93.08,71.24c-.97-.83-2.04-1.46-3.19-1.91-1.15-.44-2.29-.66-3.41-.66h-.51c-.22,0-.44.02-.66.07s-.41.13-.58.24c-.16.12-.24.28-.24.49,0,.41.37.77,1.11,1.06.74.3,1.99.68,3.77,1.15,1.89.5,3.49,1.04,4.79,1.62,1.3.58,2.35,1.23,3.15,1.97.8.74,1.37,1.57,1.73,2.5.35.93.53,2.02.53,3.26,0,3.34-1.14,5.92-3.41,7.75-2.28,1.83-5.52,2.75-9.75,2.75-2.66,0-5.13-.35-7.42-1.06-2.29-.71-4.14-1.7-5.56-2.97-.35-.32-.41-.71-.18-1.15l4.12-6.6c.35-.56.81-.63,1.37-.22,1.33.97,2.7,1.71,4.12,2.19,1.42.49,2.87.73,4.34.73.86,0,1.47-.07,1.84-.22.37-.15.55-.34.55-.58,0-.15-.05-.28-.16-.4-.1-.12-.31-.23-.62-.33-.31-.1-.75-.23-1.31-.38-.56-.15-1.29-.33-2.17-.53-1.95-.5-3.59-1.03-4.92-1.57-1.33-.55-2.4-1.18-3.21-1.91-.81-.72-1.4-1.57-1.75-2.53-.35-.96-.53-2.09-.53-3.39,0-3.52,1.09-6.23,3.28-8.15,2.19-1.92,5.24-2.88,9.17-2.88,1.48,0,2.84.15,4.08.44,1.24.3,2.35.66,3.32,1.09.97.43,1.83.89,2.57,1.37.74.49,1.34.94,1.82,1.35.47.38.52.81.13,1.28l-4.83,6.03c-.41.47-.87.5-1.37.09Z"/>
          <path d="M102.69,91.05c-.62,0-.93-.31-.93-.93v-29.16c0-.62.31-.93.93-.93h8.55c.62,0,.93.31.93.93v29.16c0,.62-.31.93-.93.93h-8.55Z"/>
          <path d="M115.77,91.05c-.62,0-.93-.31-.93-.93v-29.16c0-.62.31-.93.93-.93h8.73c.35,0,.61.05.75.16.15.1.29.24.44.42l6.69,9.97c.09.15.23.23.42.24.19.02.35-.07.47-.24l6.78-10.24c.09-.15.18-.24.27-.27.09-.03.25-.04.49-.04h9.17c.65,0,.97.31.97.93v29.16c0,.62-.33.93-.97.93h-8.51c-.62,0-.93-.31-.93-.93v-10.19c0-.12-.12-.18-.35-.2-.24-.01-.41.05-.53.2l-4.7,6.96c-.24.35-.47.59-.71.71-.24.12-.69.18-1.37.18-.33,0-.59,0-.8-.02-.21-.01-.37-.04-.49-.09-.12-.04-.22-.11-.31-.2-.09-.09-.19-.21-.31-.35l-4.83-7.18c-.12-.18-.3-.24-.53-.2-.24.04-.35.16-.35.33v10.06c0,.62-.31.93-.93.93h-8.55Z"/>
        </g>
        <g>
          <path d="M18.75,139.04c-.88,0-1.31-.44-1.31-1.31v-41.13c0-.88.44-1.31,1.31-1.31h16.56c6.33,0,11.2,1.3,14.6,3.91,3.4,2.61,5.09,6.32,5.09,11.16s-1.66,8.83-4.97,11.38c-3.31,2.54-8.2,3.81-14.66,3.81h-1.94c-.88,0-1.31.52-1.31,1.56v10.63c0,.88-.44,1.31-1.31,1.31h-12.06ZM34.94,114.29c1.21,0,2.18-.09,2.91-.28.73-.19,1.28-.43,1.66-.72.38-.29.61-.63.72-1,.1-.37.16-.75.16-1.13s-.05-.75-.16-1.12c-.1-.37-.34-.71-.72-1-.37-.29-.93-.53-1.66-.72-.73-.19-1.7-.28-2.91-.28h-1.88c-.62,0-.94.44-.94,1.31v4.94h2.81Z"/>
          <path d="M58.51,139.04c-.88,0-1.31-.44-1.31-1.31v-41.13c0-.88.44-1.31,1.31-1.31h28.25c.88,0,1.31.44,1.31,1.31v10.19c0,.87-.44,1.31-1.31,1.31h-13.56c-.88,0-1.31.44-1.31,1.31v.69c0,.88.44,1.31,1.31,1.31h11.88c.88,0,1.31.44,1.31,1.31v9.13c0,.87-.44,1.31-1.31,1.31h-11.88c-.88,0-1.31.44-1.31,1.31v.44c0,.87.44,1.31,1.31,1.31h13.56c.88,0,1.31.44,1.31,1.31v10.19c0,.88-.44,1.31-1.31,1.31h-28.25Z"/>
          <path d="M93.13,139.04c-.88,0-1.31-.44-1.31-1.31v-41.13c0-.88.44-1.31,1.31-1.31h18.5c3.25,0,6.21.51,8.88,1.53,2.67,1.02,4.96,2.48,6.88,4.38,1.92,1.9,3.41,4.2,4.47,6.91,1.06,2.71,1.59,5.73,1.59,9.06s-.53,6.34-1.59,9.03c-1.06,2.69-2.55,4.99-4.47,6.91-1.92,1.92-4.21,3.39-6.88,4.41-2.67,1.02-5.61,1.53-8.81,1.53h-18.56ZM111.2,126.22c1.17,0,2.19-.27,3.06-.81.88-.54,1.59-1.24,2.16-2.09s.99-1.82,1.28-2.91c.29-1.08.44-2.17.44-3.25s-.15-2.24-.44-3.34c-.29-1.1-.72-2.08-1.28-2.94s-1.27-1.53-2.13-2.03c-.85-.5-1.84-.75-2.97-.75h-3.19c-.58,0-1,.17-1.25.5-.25.33-.37.79-.37,1.38v14.31c0,1.29.54,1.94,1.63,1.94h3.06Z"/>
          <path d="M137.57,139.04c-.88,0-1.31-.44-1.31-1.31v-41.13c0-.88.44-1.31,1.31-1.31h12.06c.88,0,1.31.44,1.31,1.31v41.13c0,.88-.44,1.31-1.31,1.31h-12.06Z"/>
        </g>
        <g>
          <path d="M18.84,190.09c-.93,0-1.4-.47-1.4-1.4v-43.77c0-.93.47-1.4,1.4-1.4h19.69c3.46,0,6.61.54,9.45,1.63,2.84,1.09,5.28,2.64,7.32,4.66,2.04,2.02,3.63,4.47,4.76,7.35,1.13,2.88,1.7,6.1,1.7,9.65s-.57,6.75-1.7,9.61c-1.13,2.86-2.72,5.31-4.76,7.35-2.04,2.04-4.48,3.6-7.32,4.69-2.84,1.09-5.97,1.63-9.38,1.63h-19.76ZM38.06,176.45c1.24,0,2.33-.29,3.26-.86.93-.58,1.7-1.32,2.29-2.23.6-.91,1.05-1.94,1.36-3.09.31-1.15.47-2.31.47-3.46s-.16-2.38-.47-3.56c-.31-1.17-.76-2.22-1.36-3.13s-1.35-1.63-2.26-2.16c-.91-.53-1.96-.8-3.16-.8h-3.39c-.62,0-1.06.18-1.33.53-.27.36-.4.84-.4,1.46v15.23c0,1.38.58,2.06,1.73,2.06h3.26Z"/>
          <path d="M64.14,166.74c0-3.68.58-7,1.73-9.95,1.15-2.95,2.78-5.45,4.89-7.52,2.11-2.06,4.63-3.66,7.58-4.79,2.95-1.13,6.2-1.7,9.75-1.7s6.8.56,9.75,1.7c2.95,1.13,5.48,2.73,7.58,4.79,2.11,2.06,3.74,4.57,4.89,7.52,1.15,2.95,1.73,6.27,1.73,9.95s-.59,6.94-1.76,9.91c-1.18,2.97-2.82,5.5-4.92,7.58-2.11,2.09-4.62,3.69-7.55,4.82-2.93,1.13-6.16,1.7-9.71,1.7s-6.79-.57-9.71-1.7c-2.93-1.13-5.44-2.74-7.55-4.82-2.11-2.08-3.75-4.61-4.92-7.58-1.18-2.97-1.76-6.27-1.76-9.91ZM88.09,158.42c-1.29,0-2.41.23-3.36.7-.95.47-1.75,1.09-2.39,1.86-.64.78-1.12,1.66-1.43,2.66-.31,1-.47,2.03-.47,3.09s.15,2.1.47,3.09c.31,1,.79,1.9,1.43,2.69.64.8,1.44,1.43,2.39,1.9.95.47,2.07.7,3.36.7s2.42-.23,3.39-.7c.97-.47,1.77-1.1,2.39-1.9.62-.8,1.09-1.7,1.4-2.69.31-1,.47-2.03.47-3.09s-.16-2.1-.47-3.09c-.31-1-.78-1.88-1.4-2.66-.62-.78-1.42-1.4-2.39-1.86-.98-.47-2.11-.7-3.39-.7Z"/>
          <path d="M141.24,160.35c-1.46-1.24-3.06-2.2-4.79-2.86-1.73-.66-3.44-1-5.12-1h-.76c-.33,0-.67.03-1,.1s-.62.19-.86.37c-.24.18-.37.42-.37.73,0,.62.55,1.15,1.66,1.6,1.11.44,2.99,1.02,5.65,1.73,2.84.75,5.23,1.56,7.18,2.43,1.95.86,3.53,1.85,4.72,2.96,1.2,1.11,2.06,2.36,2.59,3.76.53,1.4.8,3.03.8,4.89,0,5.01-1.71,8.89-5.12,11.64-3.42,2.75-8.29,4.12-14.64,4.12-3.99,0-7.71-.53-11.14-1.6-3.44-1.06-6.22-2.55-8.35-4.46-.53-.49-.62-1.06-.27-1.73l6.19-9.91c.53-.84,1.22-.95,2.06-.33,2,1.46,4.06,2.56,6.19,3.29,2.13.73,4.3,1.1,6.52,1.1,1.29,0,2.21-.11,2.76-.33.55-.22.83-.51.83-.87,0-.22-.08-.42-.23-.6-.16-.18-.47-.34-.93-.5-.47-.15-1.12-.34-1.96-.56-.84-.22-1.93-.49-3.26-.8-2.93-.75-5.39-1.54-7.38-2.36-2-.82-3.6-1.77-4.82-2.86-1.22-1.09-2.1-2.35-2.63-3.79-.53-1.44-.8-3.14-.8-5.09,0-5.28,1.64-9.36,4.92-12.24,3.28-2.88,7.87-4.32,13.77-4.32,2.22,0,4.26.22,6.12.67,1.86.44,3.53.99,4.99,1.63,1.46.64,2.75,1.33,3.86,2.06,1.11.73,2.02,1.41,2.73,2.03.71.58.78,1.22.2,1.93l-7.25,9.05c-.62.71-1.31.75-2.06.13Z"/>
        </g>
      </g>
      <g>
        <path d="M220.46,147.07h0c-.5-.71-1.03-1.4-1.58-2.05l-46.07-59.68-8.62,6.63,18.65,44.15s-5.02,1.95-8.29,4.14c-10.86,7.27-14.12,21.61-8.15,33.6,7.17,14.39,25.57,20.88,41.11,14.51,15.54-6.38,22.33-23.21,15.16-37.6-.65-1.3-1.39-2.53-2.21-3.7ZM205.46,163.4c-.54,6.15-5.97,10.7-12.13,10.16-6.15-.54-10.7-5.97-10.16-12.13s5.97-10.7,12.13-10.16c6.15.54,10.7,5.97,10.16,12.13Z"/>
        <path d="M232.1,123.6c-2.38-4.45-5.15-8.67-8.27-12.63l-38.93-49.4-7.51,20.44s47.03,58.46,49.78,63.67c2.75,5.21,3.8,5.25,3.8,5.25,0,0,4.71-20.64,1.13-27.32Z"/>
        <polygon points="178.1 59.59 166.58 67.9 162.31 84.99 171.26 79.23 178.1 59.59"/>
        <path d="M175.9,132.79l-5.44-11.01s-8.39,7.82-8.16,22.72c0,0,7.59-9.3,13.6-11.7Z"/>
      </g>
    </g>
  </g>
</svg>