<?xml version="1.0" encoding="UTF-8"?>
<svg id="Logos" xmlns="http://www.w3.org/2000/svg" viewBox="0 0 250 250">
  <g id="Fit_Dance" data-name="Fit Dance">
    <g>
      <path d="M69.65,62.96c2.07,1.97,2.35,8,2.63,10.91.5,5.32.76,10.92,1.01,16.22.45,9.42.2,18.91.71,28.34.98,1.02.54.22.87-.13,5.09-5.4,9.95-11.16,18.27-7.69,13.24,5.5,18.22,33.97,20.35,46.6,1.63,9.67,4.42,23.89,4.59,33.36.16,8.88-8.05,9.59-13.96,5.06-5.57-4.27-3.37-12.08-4.77-18.13-.75-.11-1.15.01-1.75.46-1.24.93-3.54,6.19-5.15,8.14-12.67,15.34-30.12,1.26-32.42-14.81-.16-1.09.33-5.6-.8-5.59-10.74,8.92-24.23,9.91-35.21.74-11.92-9.97-12.48-25.84-4.63-38.61,7.56-12.31,21.81-16.18,35.2-18.57,1.35-9.58,1.69-19.32,2.97-28.91.52-3.92,1.3-12.31,3.38-15.33,1.84-2.66,5.94-4.66,8.69-2.04ZM50.48,118.04c-9.36,1.93-17.76,23.09-9.24,29.2,7.8,5.6,16.32-7.62,17.92-14.12,1.63-6.64.58-16.99-8.68-15.08ZM86.91,137.7c-.83.24-1.87,1.85-2.33,2.62-3.54,5.92-7.38,25.34-4.31,31.42,2.51,4.98,6.01-4.12,6.66-5.93,2.28-6.36,4.32-18.34,2.96-24.87-.33-1.59-.95-3.82-2.98-3.24Z"/>
      <path d="M190.33,102.8c3.6-.41,11.23-.35,13.64,2.83,5.79,7.63-9.31,8.12-13.66,9.95-12.57,5.3-19.29,22.82-20.08,35.56-.7,11.32,2.44,31.9,18.57,25.46,1.17-.47,4.89-2.53,5.35-3.55.42-.95-2.2-8.24-2.58-10.22-2.55-13.38-.46-39.7,14.85-44.92,9.98-3.4,19.31-.62,23.64,9.38,5.28,12.17-3.45,23.04-12.88,29.94-3.84,2.81-8.4,4.42-11.91,7.33,1.62,9.31,12.07,8.57,19.13,5.8,2.3-.9,8.25-4.69,10.14-4.66,2.62.05.57,6.65-.19,8.2-4.55,9.23-19.6,13.08-28.82,9.61-3.86,3.71-8.26,6.93-13.35,8.78-44.52,16.19-44.12-55.85-23.38-78.03,5.09-5.44,14.07-10.6,21.54-11.45ZM209.5,130.84c-12.17,2.5-9.25,34.73,3.78,17.57,4.13-5.44,6.08-19.6-3.78-17.57Z"/>
      <path d="M128.4,126.79c-1.29-.39-1.4,1.3-1.48,2.21-.84,9.78.57,22.91-1.8,32.17-.65,2.55-1.81,5.97-5.24,4.91-2.67-.82-4.33-11.81-4.71-14.5-1.2-8.6-1.99-18.81-2.52-27.51-.35-5.7-1.12-13.7-.5-19.2.47-4.14,4.35-6.5,7.88-7.87,8.38-3.25,17.56-4.44,19.63,6.46,1.94,10.23,1.66,22.45,2.53,32.92.04.47.41,4.27,1.46,3.21l7.29-43.67c2.92-8.2,13.1-5.68,11.29,2.92-6.08,25.84-9.81,52.25-15.35,78.18-.71,3.31-2.65,14.61-6.44,15.25-5.77.97-7.7-9.72-8.44-13.7-3.09-16.82-2.36-34.75-3.6-51.78Z"/>
      <path d="M32.34,90.3c-2.53-.05-5.33-.19-5.35,3.02h4.43s-.52,3.42-.52,3.42l-4.83.09-2.77,10.78-4.19.48c2.14-4.64,2.54-17.02,6.43-19.91,1.97-1.46,5.85-2.01,7.83-.53l-1.03,2.65Z"/>
      <path d="M46.19,89.38l-.9,3.71c.2,1.16,3.41.63,4.35.73l-.52,2.92-4.66.51c-.5,1.42-2.33,6.7-.42,7.32l3.63.07.02,2.63c-13.97,4.55-7.02-9.32-5.84-16.57l.74-.74,3.6-.58Z"/>
      <polygon points="37.82 93.81 34.76 107.48 31.24 108.02 30.62 107.07 33.82 94.09 37.82 93.81"/>
      <circle cx="36.81" cy="89.45" r="2.47"/>
    </g>
  </g>
</svg>