<?xml version="1.0" encoding="UTF-8"?>
<svg id="Logos" xmlns="http://www.w3.org/2000/svg" viewBox="0 0 250 250">
  <g id="Good_Game" data-name="Good Game">
    <g>
      <path d="M216.39,166.87H33.63c-5.33-.09-10.29-3.79-10.87-9.23v-91.47c.58-5.47,5.56-9.14,10.88-9.26h182.82c5.49.23,10.42,4.09,10.77,9.79v90.43c-.17,2.62-1.27,4.83-3.11,6.61-2.07,1.92-4.69,3.02-7.73,3.13ZM102.91,134.99h-30.87s0-30.94,0-30.94h-15.51s0-15.49,0-15.49h62.01s0-15.58,0-15.58l-77.56.02v77.67s2.25-.05,2.25-.05h75.3s.01-46.58.01-46.58h-31.14s0,15.54,0,15.54h15.51s0,15.4,0,15.4ZM162.49,136.23l.04-1.81v-29.03s-15.63,0-15.63,0c-.08-.6-.05-1.12.12-1.73l.02-15.1h62.01s.01-14,.01-14h-76.08s0,76.05,0,76.05h76.07s0-45.22,0-45.22h-29.67s0,14.21,0,14.21h13.56c.69-.12,1.31-.14,1.93-.05l-.02,16.7h-32.38Z"/>
      <path d="M90.24,187.9h-7.1c-.42,0-.86-.42-.86-.88v-13.08c0-.45.45-.89.87-.89h6.99c1.98.24,3.31,1.87,3.31,3.84v7.18c0,1.9-1.24,3.51-3.22,3.83ZM91.58,183.98l-.02-7.25c0-1.05-.93-1.82-1.93-1.81l-5.46.05.02,11.08,5.24.03c1.22,0,2.14-.73,2.14-2.09Z"/>
      <path d="M158.43,177.03l-2.88,3.96c-.14.19-.54.42-.74.44-.23.02-.69-.22-.83-.42l-2.9-3.98-.02,9.84c0,.62-.38,1.05-.95,1.04s-.93-.41-.93-1.05v-12.77c0-.39.24-.86.49-.96.29-.12.95-.06,1.11.17l3.97,5.57,3.88-5.44c.19-.27.72-.43,1.04-.36.35.08.68.57.68,1.02v12.76c0,.55-.36,1-.82,1.04-.54.05-1.02-.29-1.07-.88l-.04-9.99Z"/>
      <path d="M139.14,182.38l-7.32-.02-.07,4.52c0,.56-.35.99-.84,1.02-.61.04-1.03-.37-1.03-1.04l.04-10.5c0-1.72,1.68-3.24,3.31-3.28s2.87-.04,4.41,0c1.79.05,3.38,1.69,3.38,3.5l.02,10.28c0,.61-.41,1.04-.9,1.05-.6.02-1-.44-1-1.04l-.02-4.5ZM139.12,180.46l.05-3.57c.01-1.07-.76-1.97-1.88-1.97h-3.69c-.99,0-1.84.84-1.84,1.82v3.68s7.36.03,7.36.03Z"/>
      <path d="M33.8,184.37v-2.01s-2.7,0-2.7,0c-.57,0-1-.43-.98-.98.01-.47.45-.91,1-.91h3.69c.44,0,.9.5.91.94v2.7c.02,1.79-1.26,3.63-3.19,3.75-1.56.1-3.14.09-4.7.01-1.98-.09-3.28-1.92-3.28-3.77v-7.21c0-1.86,1.3-3.67,3.29-3.78,1.51-.08,3.02-.07,4.55,0,1.89.08,3.32,1.8,3.33,3.62,0,.63-.47,1.01-.99,1-1.45-.03-.33-2.77-2.7-2.78h-3.67c-1.17-.01-1.91.85-1.91,1.96v7.18c0,1.1.74,1.98,1.91,1.98h3.69c.84-.01,1.76-.73,1.77-1.69Z"/>
      <path d="M119.92,184.3l.02-1.93-2.78-.02c-.46,0-.89-.39-.95-.85-.05-.41.35-1.02.85-1.02l3.81-.02c.46,0,.95.48.95.95l-.03,3.04c-.02,1.67-1.47,3.32-3.18,3.4s-3.11.08-4.75,0-3.18-1.67-3.18-3.32v-8.11c0-1.65,1.54-3.24,3.19-3.32s3.01-.07,4.56-.02c1.91.06,3.37,1.77,3.38,3.63,0,.54-.43.95-.87.99-.5.04-.98-.37-1-.94-.05-1.02-.8-1.84-1.85-1.84h-3.69c-1,0-1.85.79-1.86,1.81v7.33c-.01,1.08.74,1.98,1.87,1.98h3.69c.91,0,1.81-.77,1.82-1.75Z"/>
      <path d="M170.44,181.43c-.11,1.6-.1,2.93-.03,4.6l8.27.03c.47,0,.89.36.96.75.09.44-.26,1.09-.79,1.09h-9.45c-.44,0-.91-.37-.91-.85v-13.12c0-.47.48-.87.92-.87h9.28c.56,0,.97.45.96.96,0,.46-.44.9-.98.9l-8.27.02.02,4.59,6.34.02c.59,0,1.02.39,1.03.93s-.45.94-1.02.94h-6.32Z"/>
      <path d="M51.82,187.91l-4.82-.05c-1.73-.02-3.21-1.76-3.21-3.46v-7.82c0-1.71,1.48-3.38,3.22-3.47,1.55-.08,3.01-.07,4.55-.02,1.78.06,3.16,1.55,3.37,3.27v8.25c-.2,1.67-1.41,2.95-3.11,3.3ZM51.16,186.05c1.07,0,1.9-.85,1.9-1.84v-7.45c0-1-.83-1.83-1.83-1.83h-3.69c-1.16,0-1.88.88-1.88,1.97v7.17c0,1.08.73,1.98,1.88,1.98h3.61Z"/>
      <path d="M71.05,187.91l-4.83-.05c-1.7-.02-3.19-1.73-3.19-3.41v-7.91c0-1.79,1.59-3.39,3.36-3.45,1.56-.05,3.01-.06,4.55.02,1.76.09,3.06,1.67,3.24,3.33v8.09c-.17,1.69-1.38,3.04-3.13,3.38ZM70.42,186.05c1.13,0,1.88-.91,1.88-1.98v-7.33c-.01-1.02-.87-1.81-1.87-1.81h-3.69c-1.12,0-1.86.91-1.86,1.97v7.18c0,1.05.75,1.97,1.86,1.97h3.68Z"/>
      <path d="M227.24,173.83v8.84s-5,5.01-5,5.01c-.28.28-.95.24-1.23-.04l-4.92-4.94-.02-8.59c0-.59.42-1.04.9-1.05.6-.01,1.01.44,1.01,1.05v7.89s3.7,3.7,3.7,3.7l3.7-3.72v-7.88c-.01-.47.31-.91.68-1.01s1.19.13,1.19.76Z"/>
      <path d="M203.38,186.77c0,.63-.33,1.05-.74,1.12-.55.09-1.15-.25-1.15-.86v-12.08s-3.65-.02-3.65-.02c-.55,0-.99-.42-1-.92,0-.55.42-.95,1.01-.95h9.26c.44,0,.84.44.89.8.06.39-.3,1.05-.75,1.05l-3.88.04v11.82Z"/>
    </g>
  </g>
</svg>