<?xml version="1.0" encoding="UTF-8"?>
<svg id="Logos" xmlns="http://www.w3.org/2000/svg" viewBox="0 0 250 250">
  <defs>
    <style>
      .cls-1 {
        fill: #0026e0;
      }
    </style>
  </defs>
  <g id="Manual">
    <g>
      <path class="cls-1" d="M52.1,99.15l.32-11.82-10.64,30.07c-.1.28-.61.51-.86.51h-6.07c-.35,0-.73-.3-.86-.66l-11.57-31.09.33,12.94v18.15c.01.38-.29.67-.66.67h-7.23c-.33,0-.59-.34-.59-.67l.21-20.36-.21-21.65c0-.33.24-.66.58-.66h11.13c.49.03.87.19,1.04.68l11.56,31.11,10.84-31c.18-.5.45-.76.97-.8h10.48c.35,0,.6.32.6.66l-.2,21.4.21,20.61c0,.35-.26.67-.6.67h-8.13c-.39,0-.67-.28-.67-.67v-18.08Z"/>
      <path class="cls-1" d="M89.95,148.58l.28-12.33-10.57,29.89c-.12.33-.48.59-.8.59h-6.13c-.3,0-.73-.17-.86-.51l-11.57-31.07c-.11,4.2.15,8.11.26,12.21v18.79c0,.31-.24.59-.54.59h-7.42c-.25,0-.52-.32-.51-.59l.22-21-.22-21.13c0-.28.26-.54.52-.54h11.43c.33.05.55.17.76.48l11.63,31.27,10.92-31.21c.13-.37.49-.54.83-.54h10.65c.24,0,.51.3.51.55l-.16,12.83v16.47s.16,12.72.16,12.72c0,.41-.21.71-.64.71h-8.19c-.32,0-.56-.25-.6-.58l.02-17.57Z"/>
      <path class="cls-1" d="M196.25,163.09c-2.46,2.88-5.75,4.3-9.52,4.26s-7.45-1.44-9.88-4.45c-1.06-1.32-1.93-2.74-2.51-4.37-2.05-5.79-1.76-13.36,1.83-18.48,2.54-3.9,6.85-5.93,11.47-5.74,3.33.13,6.33,1.29,8.61,3.94l-.05-14.26c0-.26.28-.54.52-.54h8.32c.2,0,.45.32.45.54l-.09,19.32.09,22.81c0,.34-.25.59-.56.59h-8.19c-.3,0-.56-.28-.57-.55l.09-3.09ZM196.18,154.85c.46-2.63.46-5.25.02-7.88-.28-1.68-.88-3.24-1.94-4.55-1.21-1.5-3.02-2.08-4.92-2.07-4.01.04-5.97,2.88-6.56,6.53-.48,2.95-.4,5.91.29,8.84.26,1.13.76,2.18,1.39,3.12,1.01,1.51,2.64,2.35,4.44,2.45,4.32.24,6.59-2.42,7.29-6.44Z"/>
      <path class="cls-1" d="M174.8,114.32c-1.24-1.84-1.48-3.89-1.28-6,.29-3.1,1.94-5.66,4.73-7.12,4.68-2.45,9.4-1.98,13.89-3.45,1.26-.42,2.03-1.39,2.04-2.63s-.79-2.2-2.06-2.58c-2.61-.79-8-.84-8.7,2.68-.07.34-.33.74-.72.74h-7.62c-.3,0-.65-.32-.63-.63.59-8.22,8.9-10.32,15.8-10.06,2.25.08,4.4.37,6.5,1.21,2.31.92,4.29,2.47,5.4,4.75.71,1.47,1.16,3.1,1.18,4.78l.21,21.09c0,.2-.06.51-.16.6s-.38.2-.54.2h-7.62c-.32,0-.6-.36-.59-.63l.13-3.29c-1.8,2.25-4.05,3.73-6.84,4.34-4.53.98-10.3.17-13.1-3.99ZM184.42,111.96c.99.52,2.08.6,3.13.54,2.86-.18,5.01-1.23,6.24-3.89.27-.95.59-1.9.6-2.9l.02-3.01c-.86.33-1.63.62-2.5.78l-4.46.84c-2.46.58-4.78,1.54-4.76,4.49.01,1.29.52,2.51,1.74,3.15Z"/>
      <path class="cls-1" d="M67.39,108.48c.26-3.12,1.83-5.65,4.52-7.15,1.88-1.05,3.96-1.67,6.12-2.02l4.91-.8c1.14-.19,2.25-.46,3.3-.85,1.16-.43,1.82-1.38,1.83-2.54s-.68-2.09-1.85-2.5c-2.63-.91-8.17-.95-8.9,2.56-.09.44-.35.78-.84.78h-7.59c-.28,0-.59-.37-.57-.65.36-4.21,2.56-6.93,6.38-8.57,4.29-1.84,11.23-2,15.59-.4s6.87,5.18,6.91,9.9l.22,20.86c0,.46-.21.8-.68.8h-7.61c-.46,0-.64-.39-.62-.78l.13-3.13c-1.44,1.64-2.86,2.92-4.84,3.69-4.9,1.9-12,1.3-15.13-3.39-1.15-1.72-1.45-3.69-1.28-5.82ZM79.08,112.28c2.05.58,5.08.09,6.78-1.27,2.52-2.01,2.54-5.31,2.44-8.3-.92.34-1.76.63-2.71.81l-4.47.86c-2.47.48-4.62,1.74-4.55,4.55.04,1.57.92,2.9,2.51,3.35Z"/>
      <path class="cls-1" d="M133.31,134.89c.44,0,.71.27.71.65l-.17,14.14.05,16.47c0,.25-.27.58-.51.58h-7.8c-.46,0-.64-.36-.61-.75.07-1.08.12-2.1.13-3.23-2.29,2.72-5.26,4.26-8.69,4.65-.9.1-1.82.07-2.74.01-6.28-.37-9.91-5.55-9.95-11.52l-.14-20.34c0-.34.26-.65.6-.65h8.14c.32,0,.6.33.59.62l-.1,7.31-.08,11.89c0,1.27.18,2.45.77,3.53.97,1.79,2.78,2.68,4.83,2.44,2.66-.3,4.59-2.42,5.49-4.84.7-1.88.87-3.78.85-5.8l-.15-14.52c0-.29.26-.63.56-.63h8.22Z"/>
      <path class="cls-1" d="M169.15,86.5l-.16,13.75.04,16.99c0,.34-.29.66-.62.66h-7.62c-.15,0-.44-.11-.53-.21s-.13-.41-.13-.57l.12-3.25c-3.04,3.75-7.79,5.32-12.56,4.56-3.35-.54-6.07-2.58-7.52-5.66-.99-2.09-1.31-4.33-1.33-6.7l-.13-19.43c0-.29.25-.56.51-.56h8.33c.37,0,.53.31.53.69l-.16,19.95c0,.97.32,1.88.74,2.67,1.02,1.93,3.11,2.83,5.24,2.39,2.6-.53,4.34-2.62,5.17-5.03.59-1.7.77-3.4.76-5.23l-.13-14.9c0-.34.23-.56.56-.56h8.46c.14,0,.44.28.44.42Z"/>
      <path class="cls-1" d="M119.33,92.09c-2.79.29-4.74,2.44-5.63,4.97-.6,1.72-.81,3.44-.79,5.28l.13,14.9c0,.32-.27.66-.6.66h-8.25c-.33,0-.62-.33-.61-.66l.16-14.27-.04-16.34c0-.35.26-.56.58-.56h7.82c1.06,0,.12,2.92.39,3.93,3.26-3.91,8.32-5.39,13.07-4.4,3.07.64,5.5,2.55,6.89,5.36,1.08,2.2,1.37,4.6,1.38,7.08l.06,10.5.13,8.57c0,.42-.18.79-.65.79h-8.13c-.31,0-.58-.37-.57-.65l.07-6.45.07-12.75c0-1.24-.18-2.4-.71-3.46-.92-1.82-2.73-2.72-4.75-2.5Z"/>
      <path class="cls-1" d="M153.89,141.04c-2.46.52-4.16,2.48-5,4.75-.7,1.9-.86,3.8-.84,5.84l.15,14.51c0,.27-.28.58-.54.58h-8.31c-.32,0-.64-.24-.64-.58l.17-14.27-.05-16.34c0-.36.29-.65.65-.65h7.74c.45,0,.55.48.52.81-.07,1.08-.12,2.05-.12,3.18,2.66-3.18,6.38-4.74,10.42-4.7,4.49.05,8.11,2.13,9.84,6.31.87,2.12,1.08,4.29,1.09,6.58l.06,10.99.11,8.08c0,.3-.28.57-.58.57h-8.19c-.3,0-.57-.27-.57-.58l.1-11.3v-8.76c0-1.48-.59-2.9-1.62-3.92-1.16-1.15-2.79-1.48-4.39-1.14Z"/>
      <path class="cls-1" d="M232.44,166.29c-3.95,1.61-10.12,1.6-14.07.06-3.7-1.45-6.61-4.21-8.05-7.99-1.83-4.8-1.83-10.22.03-15.02,1.48-3.83,4.44-6.72,8.31-8.1,4.28-1.53,9.02-1.53,13.33-.06,3.9,1.33,6.88,4.23,8.34,8.07,1.85,4.9,1.8,10.43-.13,15.29-1.44,3.62-4.22,6.3-7.77,7.74ZM230.81,158.41c.51-.99.85-1.99,1.03-3.1.46-2.82.48-5.62.04-8.45-.24-1.55-.7-2.98-1.58-4.26-1.53-2.24-4.35-2.73-6.84-2.13-3.01.73-4.32,3.55-4.75,6.38-.41,2.68-.42,5.34-.02,8.02.52,3.47,2.27,6.38,6.09,6.54,2.56.18,4.81-.61,6.03-2.99Z"/>
      <path class="cls-1" d="M45.5,145.46c0,9.16-7.43,16.58-16.59,16.58s-16.59-7.42-16.59-16.58,7.43-16.58,16.59-16.58,16.59,7.42,16.59,16.58ZM21.25,152.4c1.45,0,2.47-.53,3.46-1.44l.06,1.19,3.45-.04v-16.02s-3.46,0-3.46,0v5.31c-1.03-.84-2.02-1.29-3.31-1.3-1.97-.02-3.68,1-4.55,2.82-.99,2.08-1,4.57-.05,6.68.79,1.76,2.43,2.78,4.39,2.79ZM40.95,149.44c1.4-2.98.87-7.67-2.83-8.99-2.76-.98-6.56-.37-7.95,2.62s-.77,7.76,3.03,9.01c2.79.91,6.38.27,7.75-2.64Z"/>
      <rect class="cls-1" x="208.34" y="74.56" width="9.17" height="43.34"/>
      <path class="cls-1" d="M24.57,144.15c.56,1.93.59,5.9-2.28,5.96s-2.86-3.87-2.39-5.81c.29-1.19,1.15-1.89,2.27-1.92s2.06.61,2.4,1.78Z"/>
      <path class="cls-1" d="M37.77,143.94c.51,1.69.88,6.18-2.17,6.21s-2.81-4.38-2.28-6.19c.32-1.08,1.2-1.62,2.28-1.61s1.85.55,2.16,1.59Z"/>
    </g>
  </g>
</svg>