<?xml version="1.0" encoding="UTF-8"?>
<svg id="Logos" xmlns="http://www.w3.org/2000/svg" viewBox="0 0 250 250">
  <g id="Whe_Play" data-name="Whe Play">
    <path d="M129.26,18.65c-.05-.02.16.12.2.12l2.62.07c54.21,2.91,97.72,45.97,101.23,100.14l.05,3.53.14.38v6.08l-.2,3.9c-.93,18.05-6.81,35.47-16.55,50.73-8.44,13.22-19.64,24.42-32.86,32.86-15.63,9.98-33.55,15.45-52.04,16.63l-1.39.09h-8.49s-1.39-.09-1.39-.09c-16.81-1.11-33.19-5.68-47.8-14.11s-25.84-19.03-34.94-32.25c-11.58-16.81-17.93-36.55-18.78-56.93l-.08-1.91c-.05-1.22-.05-2.43,0-3.65l.08-2.06c.71-18.46,6-36.44,15.67-52.21,9.3-15.17,22.2-27.78,37.56-36.75,14.71-8.59,31.22-13.49,48.2-14.39.98-.05,1.85-.01,2.69-.19h6.08ZM106.28,101.02l-.36-.28.69-2.4.35-.06c.63-3.04,1.87-6.16-.54-8.61-1.16-1.18-2.65-1.65-4.34-1.52s-2.99.9-3.69,2.43c-.42.99-.81,1.97-1.06,3.09l-7.63,33.66-8.34-30.86c-.57-1.82-1.12-3.47-1.96-5.11-.68-1.33-1.72-2.32-3.16-2.8-1.66-.55-3.45-.55-5.13-.04-1.58.49-2.76,1.57-3.49,3.03-.83,1.68-1.43,3.36-1.93,5.23l-8.19,30.65-7.33-32.33c-.37-1.64-.89-3.11-1.49-4.6-.55-1.38-1.71-2.11-3.13-2.33-1.97-.32-3.76.28-5.09,1.76-.68.76-1.11,1.58-1.17,2.62-.11,1.9.35,3.57.81,5.41l9.52,38.29c.46,1.85,1.06,3.53,1.86,5.2.63,1.32,1.7,2.24,3.12,2.59,1.61.4,3.29.38,4.87-.08,1.31-.38,2.24-1.25,2.85-2.44.83-1.61,1.4-3.22,1.94-4.99l4.85-17.85c3.46,2.36,6.87,4.38,10.58,6.28l2.88,10.57c.46,1.66.98,3.17,1.62,4.75.43.78.79,1.61,1.41,2.26,1.26,1.33,3.1,1.95,4.9,1.82,2.31-.16,4.17-.61,5.26-2.93.8-1.7,1.42-3.4,1.88-5.28l8.65-35.11ZM154.61,141.76c.48-1.13.75-2.32.75-3.62v-20.39c0-2.16-.38-4.17-1-6.16-1.28-4.11-4.98-7.4-9.25-8.06-4.33-.68-8.33-.11-11.97,2.39-1.4.96-2.5,2.11-3.72,3.38l-.02-13.59c0-1.32-.13-2.58-.38-3.83-.59-3.06-3.83-4.24-6.47-3.45-1.7.51-2.89,1.9-3.1,3.65-.15,1.24-.24,2.35-.24,3.66v41.58c0,1.33.16,2.47.42,3.71.64,2.97,3.75,3.93,6.44,3.15,3.58-1.03,3.22-5.65,3.27-8.81,5.37-.34,10.6-1.12,15.88-2.34l.02,4.74c0,1.03.15,2.03.31,3.03.26.96.7,1.74,1.28,2.53.35.48.67.94,1.32,1.01,2.54.26,5.28.26,6.47-2.56ZM182.48,119.54h21.53c1.28,0,2.45-.16,3.62-.47,2.09-.54,3.31-3.09,2.62-5.24-.35-1.09-1.31-2-2.52-2.53-.8-.17-1.61-.32-2.5-.32l-17.56-.02c4.46-4.12,8.44-8.44,12.11-13.29l6.41-.03c1.21,0,2.48-.03,3.63-.34,1.55-.42,2.47-1.93,2.63-3.48.19-1.9-.83-3.79-2.67-4.37-.92-.29-1.91-.35-2.94-.35h-27.53c-1.61,0-3.09.14-4.58.57-.72.21-1.29.9-1.87,1.36-.54.43-.93,1.01-1.04,1.7-.23,1.46-.38,2.82-.38,4.36v38.88c0,1.47.05,2.81.49,4.19.31.98,1.3,2.22,2.27,2.63,1.46.62,3.08.66,4.69.66l26.33.02c1.96,0,3.84.09,5.68-.37,1.64-.41,2.55-2.27,2.57-3.79.01-1.59-.81-3.3-2.4-3.86-.96-.34-2.05-.34-3.1-.35h-25.51s0-15.58,0-15.58ZM182.46,177.1c1.34-2.07.73-4.65-1.23-5.98-2.26-1.53-5.54-1.77-5.15-3.37.37-1.51,4.34-.72,5.51-.14l.87-3.37c-.46-.33-1.01-.7-1.57-.76-3.02-.31-6.12-.31-8.22,2.13-1.6,1.86-1.42,4.47.46,6.03,2.51,2.08,6.01,1.81,5.45,3.88-.11.42-.62.72-1.13.87-1.77.23-3.4-.13-5.16-.91l-.82,3.6c3.37,1.54,8.79,1.45,11-1.97ZM133.14,174.36c1.8.06,3.21-.03,4.65-.61,1.97-.74,3.2-2.42,3.3-4.51.29-2.87-1.63-5.2-4.54-5.54-2.54-.3-5.09-.15-7.71.14v15.97s4.27-.01,4.27-.01l.03-5.43ZM79.61,172.36c1.52-1.77,1.55-4.43.37-6.36-.91-1.3-2.26-1.99-3.84-2.18-2.51-.3-5.02-.13-7.62.15v15.95s4.28,0,4.28,0v-5.46c2.34.04,5.22-.23,6.82-2.1ZM93.72,176.21h-6.16s0-12.53,0-12.53h-4.35s0,16.13,0,16.13h10.52s0-3.6,0-3.6ZM104.64,176.09l1.02,3.73,4.64-.03-4.79-16.13h-5.73s-4.66,16.13-4.66,16.13h4.46s.89-3.73.89-3.73l4.16.02ZM123.51,163.7l-4.83-.02-2.31,6.5-2.47-6.52-4.95.03,5.08,9.62v6.51s4.29-.02,4.29-.02l.02-6.8,5.18-9.29ZM153.77,176.21h-6.15s0-12.53,0-12.53h-4.34s0,16.13,0,16.13h10.5s0-3.6,0-3.6ZM169.04,163.72h-4.34s-.02,10-.02,10c0,.74-.29,1.57-.71,2.13-.83,1.11-2.66,1.18-3.54.1-.56-.69-.81-1.67-.81-2.56l-.02-9.67h-4.33s0,9.33,0,9.33c0,1.18.23,2.32.61,3.4,1.28,3.59,5.37,4.16,8.55,3.36,3.42-.87,4.6-4.04,4.6-7.3v-8.79ZM100.44,205.6c-1.72-.49-1.49-3.65-.35-4.35.77-.47,1.63-.07,2.51.08v-1.76c-.73-.21-1.4-.32-2.15-.29-1.87.08-3.25,1.38-3.55,3.22-.24,1.53.03,3.28,1.3,4.3s2.95,1.02,4.4.66v-1.95c-.72.14-1.45.3-2.17.09ZM112.39,207.46v-8.12s-2.32,0-2.32,0l-.04,3.08h-2.05s-.02-3.07-.02-3.07h-2.33s0,8.1,0,8.1h2.31s.04-3.2.04-3.2h2.06s.02,3.21.02,3.21h2.32ZM119.77,205.91l.46,1.56,2.3-.03-2.2-8.12-3.34.03-2.19,8.1h2.24s.47-1.57.47-1.57l2.27.02ZM131.67,207.46v-8.11s-2.05,0-2.05,0c-.06,1.7.01,3.28.15,5.11l-2.57-5.11-2.26.02v8.1s2.07,0,2.07,0l-.15-5.11,2.62,5.1h2.2ZM141.51,207.45v-8.11s-2.08,0-2.08,0l.14,5.05-2.55-5.05h-2.25s0,8.11,0,8.11h2.08s-.12-5.01-.12-5.01l2.59,5.02,2.2-.02ZM149.01,204.17l-.02-1.79-2.02-.04v-1.3s2.89-.01,2.89-.01l.02-1.75h-5.17s0,8.18,0,8.18h5.15s.02-1.81.02-1.81l-2.9-.03v-1.43s2.03-.04,2.03-.04ZM157.65,205.64h-2.71s-.01-6.3-.01-6.3l-2.32.02v8.11s5.04,0,5.04,0v-1.82Z"/>
  </g>
</svg>